<mxfile host="app.diagrams.net" modified="2021-05-12T07:08:58.172Z" agent="5.0 (Macintosh; Intel Mac OS X 10_15_7) AppleWebKit/605.1.15 (KHTML, like Gecko) Version/14.1 Safari/605.1.15" etag="rl1gX78jJklKs4xmmchw" version="14.5.7" type="github">
  <diagram id="tcbgEw8WPt_jq19-CaxU" name="Trang-1">
    <mxGraphModel dx="946" dy="645" grid="1" gridSize="10" guides="1" tooltips="1" connect="1" arrows="1" fold="1" page="1" pageScale="1" pageWidth="827" pageHeight="1169" math="0" shadow="0">
      <root>
        <mxCell id="0" />
        <mxCell id="1" parent="0" />
        <mxCell id="6ZSq0b5IOj_RQ6HTlrTR-3" value="" style="rounded=0;whiteSpace=wrap;html=1;strokeWidth=5;" vertex="1" parent="1">
          <mxGeometry x="30" y="40" width="790" height="320" as="geometry" />
        </mxCell>
        <mxCell id="6ZSq0b5IOj_RQ6HTlrTR-22" value="" style="shape=image;verticalLabelPosition=bottom;labelBackgroundColor=#ffffff;verticalAlign=top;aspect=fixed;imageAspect=0;image=data:image/png,iVBORw0KGgoAAAANSUhEUgAAAwMAAADiCAYAAAAS0huZAAAAAXNSR0IArs4c6QAAAERlWElmTU0AKgAAAAgAAYdpAAQAAAABAAAAGgAAAAAAA6ABAAMAAAABAAEAAKACAAQAAAABAAADA6ADAAQAAAABAAAA4gAAAACo7G1UAABAAElEQVR4AeydBbhVRdfHF4qCYmEXIliIIiZiICB2goHdKLbY+CqKXYiJ2AqiiIkY2IUKgoAigkmjgoCKtPrub37r/Wa7z76n7j33XE6s9Tzn7Jo9e+Y/e8+snKm1aPGSQAqQPh7yUUKpateuLU2aNks4ZwdLF4Fvxn0lLXfZdekWwp6egMCwoZ9amyQgsvQPrE2WfhvES2BtEkdk6R9bmyz9NoiXwNokjsjSP85Xmyyz9KtmJTAEDAFDwBAwBAwBQ8AQMAQMgaWBQO24Bn5pFMKeaQgYAoaAIWAIGAKGgCFgCBgCNY+AWQZqHnN7oiFgCBgChoAhYAgYAoaAIVAQCJgwUBDNYIUwBAwBQ8AQMAQMAUPAEDAEah4BEwZqHnN7oiFgCBgChoAhYAgYAoaAIVAQCNT64IMPCnI2oYJAxwphCBgChoAhYAgYAoaAIWAIlDACtX6ZObsohAGmsTz2lSYl3BTFWbXpPdYpzoKXaKmnTp0mDRpsWKK1K85qWZsUXrtZm1ibFB4ChVci+07Kp01qF15V05fImM/0+NTU1Q0umVFTj7LnGAKGgCFgCBgChoAhYAjkCQGLGcgTsJatIWAIGAKGgCFgCBgChoAhUOgImDBQ6C1k5TMEDAFDwBAwBAwBQ8AQMATyhIAJA3kC1rI1BAwBQ8AQMAQMAUPAEDAECh2BaokZmDdvvoz+4gsZOXKUdOhwqDTcaKO817t///4yffr0pM9p0KCBHHXUUUmvVcfJq6++Wvr16yebb765vPjii7LiiitWOtsPP/xQZsyYIR07dkx670cffSTvvvuunHPOObL22msnTcPJTPmkvNEuGAKGgCFgCBgChoAhYAiUPQLVIgz0fvBB2XDDDWX2nDkiNTQ30XvvvSdffvmlNuC3334ryyyzjGy22WZ6vP322+dVGLjuuuukbt26ctttt8msWbNkoyoIP4MGDZIvnACVTBgIgkDOOuss2XnnndMKAlQ2XT4Khv0ZAoaAIWAIGAKGgCFgCBgCKRCoFmHgwgvOl9q1a8uNN9+a4jHVf/rhhx8OMz3ooIOkTp068sILL4Tn8r2z6aabyqRJk2S11VbTR/3999+KQXU89/fff5fOnTvLGWecUR3ZWR6GgCFgCBgChoAhYAgYAoZAUgSqJWYAQaDQqFWrVnLuuecqs37kkUfKjTfeKKeffnpYzBEjRkiTJk1k8eLF4Tm/06dPH2ncuLEKGFtvvXWCkPHJJ5/IcccdJ506dZIWLVrII488ImPHjpXllltORo0a5bMIt0OHDpW2bdvKyiuvLHvuuae8/vrr4bWZM2cKgky9evVkq622ksGDB+u1uXPnSq9evYTrUJs2beTaa6+VZs2aqUtSu3btZMqUKXqNv1T5hAlsxxAwBAwBQ8AQMAQMAUPAEEiCQLUIA0nyXeqnJkyYII8//rjg0oMw8Msvv8i0adPCcs2bN09wL/rnn3/Cc+zAiMPon3baaTJ69Ghp3bq1nHjiiUL6RYsWyWGHHSb//e9/5bXXXpNDDz1UBQwsBDDz9evXT8hr6tSpyuyvtdZa8tZbb8m2226ref3222+aDiGiadOm8uabb6qb1cknn6znEVC+++47WbJkiR5TlzvuuEO6dOmibkHjxo1T4UYvur9U+fjrtjUEDAFDwBAwBAwBQ8AQMASSIVB4Kv1kpaziubPPPlvOP/98vXvIkCFZ5VKrVi3hhz8/mv+bb75Zunbtqtr7Rx99VP744w+1BqDNx/qAUEBAMUHLjRo1SngGcQ0w/vfff7+sueaasuOOOwqWBoQKaOONN9a4A/Zh9A844ADNn+M4YeVAQIEOPvhgmThxYpgkVT6rrrpqmMZ2DAFDwBAwBAwBQ8AQMAQMgTgCJWsZoKK4+qQignSTEe48zzzzjGrb99lnH9lggw2kR48eQkwAAkXz5s1VMPD37r777vLnn3/KwIED/alwO378eA1qRhCAcCU69dRTZb311tPjhg0b6pY/rAdQMrclzhOg7WmVVVbR8vjjyuTj77GtIWAIGAKGgCFgCBgChoAhUNLCQDSWgdmGFi5cGLZ4qmlJcRNC6//111/LDz/8IBdddJHcc8896sqD9h8XHe++Q2YjR44UZi8igDlOMPho8HExgnAvuuyyy8LYgmWXXTZ+i6QSUih/KqpMPqnysPOGgCFgCBgChoAhYAgYAuWHQGoOswpYXHnF5dKwYf7XGKhC0WT99ddXxh3mHR/8u+66K2k2aPk7dOigPvpo8HfddVdNx1oChxxyiMyfP1/dglgjgOBh4gqII0hG+++/vwoAN9xwg05BilDRu3fvKk1Fmix/O2cIGAKGgCFgCBgChoAhYAjkgkC1CgO5FCSXe72ffzQPzkXplFNOkS222EL99rfccksN5o1e9/veLahnz55qIUAAIO6AQGJiCJjlh9+6666rWv6bbrop5ZoGBAczBSoCAFYCtj5+gOfFy+jL4LfeGhBPx7G/lk0+Pj/bGgKGgCFgCBgChoAhYAgYAlEEav0yc3Zy5/loqgLY/2bcV3LsK01keo91cipN3759dZpPtP/pCJeeyZMnq68+vv5R4hpuRggOUaY8mia6T/qff/5Z00fPF/P+BpfM0OLn2h7FjEEhln3q1GkumP3f+JJCLGO5lcnapPBa3NrE2qTwECi8Etl3Uj5tUtKzCSVrxueee059+DMJAzD58dmBfH5cI34gWyI9gkMpkQkBpdSaVhdDwBAwBAwBQ8AQKFcEyk4YGDBggPrxl2uD51pvbxGI52PCQRwROzYEDAFDwBAwBAwBQ6DwESg7YYBAYCNDwBAwBAwBQ8AQMAQMAUPAEBApOmEglWbaGjP/CJj2P/8Y2xMMAUPAEDAEDAFDwBCoSQRqE5hrZAjkigCBRkaFgYC1RWG0Q7QU1iZRNApj39qkMNohWgprkygahbFvbVIY7RAtRT7apHbLXf43j370QYW4P2zopznPJFSI9SqVMtkMNoXRknQS1haF0Ra+FNYmHonC2VqbFE5b+JJYm3gkCmdrbVI4beFLkq82KYl1BjxItjUEDAFDwBAwBAwBQ8AQMAQMgewRKLqYgeyrZinzgUA0biBfEmo+ym15GgKGgCFgCBgChoAhYAhURMAsAxUxsTOGgCFgCBgChkBKBM455xw57rjjbJrqlAjZBUPAECgmBKrVMsBKu9msyFtMAFlZDQFDwBAwBAwBj8Dnn38ujz/+uHz44Yc23nlQbGsIGAJFjcCyV3Xr1j3XGnw+cpT0efIpeeGll2Xy5Mmy+WabSp06dXLNNuH+adOmysYbbxyemzdvntxzzz0yfPhwadmyZXje79x1110yatQo2WmnnfTU/PnztfNed9115YsvvpAFCxbIGmus4ZOH2y+//FL69esnW265paywwgrh+alTp8rDDz8sO+ywg9x3332yaNGihPL4hI8++qjMnj1bNtlkE3+qZLdz586VVVddJaxf//795c0335RPP/20wg/8tt56a03LKtD8tttuO6lbt254f7Y7CxculLvvvlsH4g033DDhNtqGdhs5cqS89957suOOOyZc5+Djjz+WQYMGSYsWLSpcK/YT8Tbx9fnnn39k9OjRivtTTz0lEyZM0Pd/9dVX1yS//PKLPPDAA7L99ttL7dr/6gjA8cEHH5SGDRtK/fr1fXby0EMPaTq+pzgtWbJE+N58H3D//ffLsGHDZOedd44nTTjmOcsvv7yss846CeeL/SDeJtm8v9lg8NFHH8ljjz0mm2++uayyyr/fYXXgla59o/kXa5vF28TXiT6jb9++8tJLL8m0adNko402knr16vnLuqXvWHXVVdUykG3/9c477whjC+MKNHPmzAr56oUy/ou3yeLFi4Vx3I8nn332mXzzzTeywQYbJGCX7buaLbSp3unvv/9edt99dx17Nt10U9lss82yzbJo08XbpGgrUkIFz1ubLFq8JMjl98fcP4PO53QJRn/5VfDHn/OCW3rcFTz34ss55ZmsPB988EEQJcdcBq599ec6ieilwDEeen7NNdcMz++5555B8+bNg5VXXjlYaaWVAqfdCa9FdxwzqfeecMIJ0dPB22+/red/++234MADDwwcI5twnYOJEycGtWrVChyjW+FaKZ6YMmVqQrU6deoUOOFLf445CVZbbbXwuHPnzpqWdlxuueUCJxgEBx10UOCsSQl5ZHPgBlJti/XWWy+YM2dOwi080w0OwRNPPKFpXAeecJ0DJwQEHTt2rHC+FE7E24Q6OUEgOOKIIxT3PfbYIzj66KMDN5gFbgG+4Nlnn9VqO6Fa8fr1118TYGjTpo2+7/F2coJ50KtXr4S0HJBuiy22CN544w29NmbMmMBZC4PXXnutQtr4iQYNGgS9e/eOny7643ibZPP+ZlPpP/74I3DMZXDeeedlk7xSaVK1bzyTYm2zeJtQr0svvVS/gaZNmwZ77723fh/Ub/z48WG1nTUg7L8OOOAA/bbCi0l2LrjgAs3LKS2CtdZaK+jRo0fwySefBPRdRokIxNvEKdW0PZxiTccR2oXx2yl7gj59+oQ3Z/uuhjdk2En3Tn/99ddBo0aNgmuuuSZDLqVxOd4mpVGr4q5Fvtok55iBP/+cJ4cefKBs2WQLqeO0eps02lg14zUpiKFljtIzzzwTPdT9bt26yYgRI+THH3+Ur776SjX8FRJFTjz55JPyyiuvRM78u3vaaaeplnXcuHH/nnR73OMEEDn00EMTzpfLAZYTLDX8WrVqJU4AC4/ROkOO2VTLy+DBg6Vdu3Yyffr0KsPz888/ixtsk95/5JFHqrYULXiU0CxRPie4RE+X9D4YofEcOnSoWsew4DgGRzp06KD4ocnHgob1gPfXE5o53mUsZU7I1dN///23bvmOzjrrLJ803LpuVr799tvwGC34888/L45xCs/Zzv8QSPf+ZoMR1oBXX31Vttlmm2ySVypNqvatVCZFlBhLrxNu5frrrxfH8Mlbb70lP/30k/z555+CZcsT/Rf9vBN2xQkMmsZfS7Y95phj5JJLLhGniBLHRMr+++8vWEmxnBllh8Add9yhfTbtgkWFvv3ss89W6yY51OS76hRZgvW/e/fu2RXeUhkCRYJAzsLAmmuuIXu2ba3VnTdvvnzyqXMH2Kmia0a+8HAaT3V98PkTt4Bw4LT3/pR26AgImPWcRkaZ1AEDBoTX4ztOg6PMi9Nmi7MExC+L02jL2muvLXFGE/PySSedJHQYRhURgFGcNGmSdO3aVZz2WF5++WVx2k1N6DTIsu2228q1114r66+/vjKlXbp0Ee5JRWDNwIzZPk5O6y1OA16hjZxGSZwmSfbaa6/4LSV5/Ndff8kjjzwiCMO4uHnCFeiWW24RZwETzI4IyLgw+PfdaS/l1FNPlauvvlrdqchj7Nix+m7jfgd+yb4h/90hMCNE4GZEG0HZtDHuFFtttZW6Aeyzzz46+Psyl9o23ftLXRGU27dvry4puNidccYZAnMJ4fIFM4obHIyRs+DIDz/8oIoY2hFh2xOMLQIDglmUENp22WUXddVz2lC58MILhfcFirYvefNdNmvWTPiuEOKnTJkSZlUKbUa9+SEUeMIVCMGZ99DTrFmz1E2U/mvgwIEpFV8IEocccoi20X/+8x/t5xgzll12WaFfw82VPHApNcoeAdyyENpwJ6R/gaLvKgop3nXS4dbIt4GSIxmhHGnbtq04a4PyBK+//nqYLNU7TZsTL2JkCJQaAjkLAx4QNIYPPvKYbL/dto6paOJP532LloCBCW0vhD84HToDpaeePXsKwgC+gHQADKynn356ypkg0ILih8jgef755/tswi3M/oknnihPP/10yKzCPDEYwwQZJUcA/2YEAQZDOl46dDTG4MwPn9p3331XO9srr7xSfTM5TkWnnHKKCn0Ibc5dqEIytP/4efp3A0GRAYQ28pruCjeV2AmYRr4H5x5UoWbEW9x6660qeIH/d999pwMn6Q877DD9Ppx7j1oH+F4Q5GDUGWTRxiXDnG8Nov3QgsLscB+UTRvDuDoTvH6vlB1NbalSpveXNsBvHeUGM9fw/aBVhhDieIed+6L6t9N2N954o8aBoPAgrScEORQh0Rgorl100UXiXCYFX2za7d5775UXX3xRb4u2L/ElaGf5bhG8sYjyLE+l0GYwhOBBvYj3wur1wgsvyG677abKH+pKPRGYDj74YFVkMFnGvvvuK7///ruHItwefvjhKsxhFUN5xLgEoYggD5hV2hWBw6giAvATKA8g3kX6Am+J552lH/LH/l3FcoDA7FxAhSDvK664QpzbobZb/Al8R7QLij/aFUUUY7pXhqR6p7FM+G8wnqcdGwLFjEDt6ig82tvH+zwpdevUkSMOb18dWWadBwwNHbbzfVYNJkw/1oKodh4NzX777adaNLRhdCS4AGGqZRBIRgQpEaSK9g6BA41YlGAonf+nIAQQVITGmW2TJjUnCEXLUwz7MCVoImESITprNDPvv/9+GMwN5gQWM8iijXRxGGmrhtBGeyK0eU2RvwHXF7SZWHAIFkawwDUDJqxcyDPiDHqeqD/Bp97qwnscDcQGRyw2tBfBk7h8IRRgJUCDjLtDKkLbCTVu3Dhs03jadG185pln6mDOPQzWUZejeD6lcJzq/YUBR4iF+UYzzQ8BmjaDUbr99ttVA+piZAR3LhhYgsAhLDoIwp5JJQ+Y0jjBzKJIgemif4SpShYQzn3nnntuqOiAGY5+l6XSZljKsHogECFk4doIHjDt9O18J/RLl112mULJNRRLWGG8xYYLCHAEzHOfbzsvZBFUTzA+lrl8uHdpwUrgD2slwhkEQ48VEosxgd0QQlRcGcGEIGjuGe/5FlyMgSqc6PPjhNskjD8uYLhGYmGjLb1lqFTe6Xi97dgQSIVAtVgGBjz3gmMe5soZnU5ZKlOtHXXUUTrYMUgy6EU7ZiqOFgbGE8YGVwk6DMgzQ3qQ5A9NAQNfMs0zTD9CCIwmHQjCSDn5oSeBK+MpGFMYHBhzfvisw8xEO+soU4pPNG2ajhggmFWKdsDtKE4IbQiImIoR2GB6EPTKhfxsWmjWPB1//PGqfcfvldm/8IuO0pAhQ9THOTqLCswQ6fy3E01f2f10bYzm1BNuFTC6pUyp3l8sWpBvP/b9rGkwkrirEJODMoPvCOEByxeEVhqmE2YUJopvjPc+TlgCwJtvBMb25JNPTukDX+ptBmOIGxwWZZhPrLxonmHcwQdC8UOf78lbyWD+o+QF2GjbRe+LprX95AgwyxmuOhBCGNYrLwhwDmEURU+UuIfZ7GDu6eOxQvNN+O8impaYKaxlPkYK5SFCNFY1qNz6oSg2tl+eCOQsDMxwZrP3P/hIJk6aLJd2vUq6XHy5/ogfqCnCEoDpDpcHXE/iLhFoQmEq6FDw1cQNAUrWScTLjGsRAZaYduPEIMGA67U+WBCMUiPAdIkEpDLw8iMYD/zwi/ZUlXUqcJlAG4Q2J87YwviiIUU7ymBSbgIbWnwYTrSc3h8c7SeCLr9keKP9hxHivfeE7z/TjvrpQv35qmyTPdPnk+6aT1Nq22TvL4w/DAp9lifv7oYAh8USph/N/owZM1RQ8P0Z7kDEyyAI8OMbiE4X6/MjJgEfawQLrEEE1/u+0afx23Ttku6av7/QtzCRuIrgBuKJ2AvcTlBi8C3AYDIttScEMPoxbw3z55l2EoqmBVuj6kGAqUZh5uPTRiPcEreH0gfLArFNKPz8dxF9OpZSBAr4AYg0WHy4ByqFd1orYn+GQJYI5CwMrOO0dw/ef4/0uqen3HXHreFvpZUS52bOsjxVSoZWq3Xr1urGgJUg7g+OIIDEjzafARBzMJSN1pH70DwTEBYnfBMZJJgt4thjj63gShRPX+7HCALeZYHOGr9y/KLxJc+VvNAWDxbDdIywwYqhWBpwPSk3wjKCtp+64weNBhQmEW0/eEXXDwAbBCtc6HALgtHEXQjLAm2ViRhEcakj/sO7qWS6x66LxjPRl/j3FzcINP/ETDBzzW233abzrYOVF9JgVhH0cOHCVSXan6HlxP2OhbFSucVhGUI4Zs0VXMGwIEStQeXULrgu0j8gKGNhhHlne9NNN6m1ACUT/QhYYx1D+cT3gf86Vs4oYU3AasAc+VgYUEJgVfDEPXxffFO+vf0121ZEgMkNeI9xkyO2BeUflhbG3yjxXSBAY/2HB8AyAL7R78Knp70RAG644QYVhhnjsQixroSRIVCOCOQsDCwt0DzD77cIAXzcURchfw3fcwKK6OzxI6QjgGnxWoB4Hfx9/jzBe157Hb3GwMlzcXMpN42zxybVFpyiWJGOzhmhCa0lzA7TIsJoRl0QovckyyP6vGhaBEI0Q8kICw5thBtEMg1psntK6RyMHswi7zxMIuZ1sIDBQcsG8x/FEuaGGTv4gSsaM5gi3nVP6TRn+FVffvnlKnQnSxd9VrSNo+d5TvSaf24pbaP1Tfb+Ys3hO8ECgOYeJoc2w72BGBlmSsEKgG81bQPT5N3qWOANjTXWHBjTZERQMFYBBAqYIIRCZr6Bou0WLSfXOPbXk12Ln+OeQidwxgoDow6ziaDFWIK1wM8aB/PP2EF7gBfpYVBpuzih9MBqQFthgaMdPGbkiQsc56LWg3ge5X7s3yNmQmvTpo32UwjFtA9KDWZmgjyu9POM71g2cRlC84/1IOoi6TElHVYxBACsBGx9/IB/rk/LcfRcdN+nsa0hUOwI1GKBr2KoxLChn6r2P5ey4tuJpt93IrnkZfeK045Ncx1v4grA2eBCjAUDpffPzOYeS5MdApnaBIEZ6xgMYKbvwKfFPcIPuNmVQtQqgD97pmdkm18xp8vUJsnqhjYTqwBuKl5bSTAqPs7MYgbxHRHonWy1YtoOFzGsb+SRjhCUESqwDJQLpWsTcMUSDO61XXxGnLCk4I6YDPd4WixrMKbRCS1Ig/sKLiqpJrCI51MOx+naJF39cQtiHQeELAgBl/c5GysX3wnvfznFkaXDMn6tqm0Sz8eOqw+BfLVJxZ6u+spccDlFNdAFV7gyKhAB3SYILJ0Gh6lHc5YNVSZtPL9yYizjda+OY2IzmOWH4GA01N5VIrp+AN8RvzhhUcCVBaYWq2Ymsm8xESEwZTasVIQbXHx2uVRpUwkMaJdNEEiFWuXO4wLqVo8OhQEfFJxNLvRxJghkg5SlKXUEykoYKPXGtPoZAoZA6SAAU0+APf7SaKmZGpc4j0yEthO3F/zbs9GOZsrPrhsChYwAVhzc54wMAUOg6giYMFB17OxOQ8AQMATyhgCuXBdccIH+KvMQYgn4GRkC5YAAsYBGhoAhkBsCRRtAnFu17W5DwBAwBAwBQ8AQMAQMAUPAEKj1wQcfFEUAMU3VuPEm1mKGgCFgCBgChoAhYAgYAoaAIVBNCJTVbELVhJll8/8I5Cuq3QCuOgLWJlXHLl93WpvkC9mq52ttUnXs8nWntUm+kK16vtYmVccuX3fmq03MTShfLWb5GgKGgCFgCBgChoAhYAgYAgWOgAkDBd5AVjxDwBAwBAwBQ8AQMAQMAUMgXwiYMJAvZJdCvsy3zLziTC1oZAgYAoaAIWAIGAKGgCFgCGRCoFqnFoUJrexKpZkKaNezQ+Dzzz+Xxx9/XOcktzbIDjNLZQgYAoaAIWAIGAKGQLkjUC3CwIjPR8obb74tv/3+uzTdcks5/tijkq6MWZ1gsxz8gw8+GGbJio6sJLjffvtJTa5++tFHH+ly5kcddVRYFnaeeOIJmTlzplx22WUJ56vj4J133hHqz+qknhAGOnbsKJtttpk/ZVtDwBAwBAwBQ8AQMAQMAUMgLQI5CwPz5y+Qfk8/I+eceYZsvHFDuff+B2X4iJGyR6vd0j4414tz5szRJcg333xzXW0T5njKlCmy3nrriZsuVTbccMNcH5HV/a+88oqMHDlSosIA5TjjjDNUU59VJlkm6tKli4wbN07Gjx8vixcvlgkTJsjFF18sCCTnn3++bLHFFuomRJnMOpAlqJbMEDAEDAFDwBAwBAyBMkYg55iBZZddVrqcf65svvlmuiT46vXry8+//FJjkPbu3VuGDx+uDPJ3332n2vh+/frV2PNvu+02effddxOe97uzkGAZwH+/OumYY46RSy65RJo3by6NGjWS/fffX7P/9ddf5cknn5Q33nhD9t57b2F5diNDwBAwBAwBQ8AQMAQMAUMgEwI5CwN169aRRs4iMHTYcHngoUectnqitG29R6bn5uX6+uuvry5Cf/31l+aPteDMM890FouNpXbt2m7RssYyYMAAvQYT36lTJzn44INlpZVWUveal19+OWm5giCQK664Qho2bCjrrruuoKFHCz9r1izp0aOHnHTSSQnPO+SQQ+TEE09MeN6YMWNku+22kyuvvFLWWWcdLdPTTz8t11xzjay99trK4L/00ktJnw9zT54w+v/5z3/kjz/+0HuaNm2q6SnHfffdp2UaOHCgzJ49O8znzjvvlK222krWWGMNOeGEE2TatGnhNdsxBAwBQ8AQMAQMAUPAEChvBHIWBjx89eqtKKvXX11gxGfO/NWfzvv2sccek27duqnGfPfdd5cVV1xRTjnlFH1uz5495ZlnntHYgqFDh8rWW28tp59+us62M2PGDHn00UdVCHjzzTcFxvq0005LOhPPHXfcIffff78y4r169ZJBgwYJVoglS5aoJWLq1KkZn7dw4UL54osv5OOPP5bnnntOdtppJ7Uc4NLUv39/FRSoRzI6/PDDZfr06fL888/LQQcdpHn4dG+99ZZceOGFKtQgzOAetO+++4q3TnTt2lWFlddee02+/fZbdSvy99rWEDAEDAFDwBAwBAwBQ6C8Ecg5ZmDRosUaOLxNs62F3worriAfDvnYMd7/01rnG95vvvlGcJNZtGiRTJ48WR/HOWIG0KYTULzjjjsqI4yGHH/6+fPna7pNNtlEEBigc889V5l8rAmrrrqqnvN/CBSHHnqodO7cWU/BmF9wwQX+crjN9DwS3n777dKiRQsVmmDuEQDatWunTHyfPn1k7ty5ssoqq4R5oskfNmyYChD77LOP8HvxxRfD61gmYP59oDKWC4SewYMHq/CAgOSvkT8WCiNDwBAwBAwBQ8AQMAQMAUMABHK2DKAdv+mW212cwAzVqv/ituuss3aNoYu7D5r9Dz/8UCZNmqSMP8G0UN26ddW9p169erLDDjsILjQQbj9QgwYNdMufZ8D//vvv8Jzf+f777/V+f9yyZUu/m7DN9DwS42oErbzyyrrF/x9aYYUVdBtfIwBtPoQlwdNuu/0bnP3JJ59I9BiBp76L20CIINh4l1128bfJlm6mp2igc3jBdgwBQ8AQMAQMAUPAEDAEyhKBnIWBVVZZWdofcpDc26u3XNr1StV4791uz6UCJnEBMOo//PCDwNTjLsSsO5999pnMmzdP/fMpmGe4s51xp1WrVjJixIiwTgQsJ6NMz+MeyhglpkSNkhdU/LlNN91Ud3Ex8oTlwxPTqUavMcPQb7/9pvEDxCJ89dVXPqmMHTtWZ2DCimJkCBgChoAhYAgYAoaAIWAIJHKmVcSj3Z5tZM+2rVUQWH755auYS9VugxFmRqN//vlHJk6cqG4/uN3AdCMI4ArUpEkT9bm/5ZZb9CGcrwwxn/9FF10kzFyEG84999yT9Pbqel40cywJaPvvuusu3cLcYw3ANQhq3769PPzww2r1wPpx9dVXa0A0rkjEF2A5wTWK48svv1yxwoJhZAgYAoaAIWAIGAKGgCFgCFSLMACMaLhrUhDwGnXm2YfQ8qMJ32OPPeTee+/Vc9dee63Ov48L0HLLLSfnnXeeaspHjRql130eepDmj5mBYMK7d++u9cT6gOtQnTp1EvJJ97zVV189Ia1/dqpttDgELB922GEa7MzMR9tvv73WlzQw/7gEEWSMxQNLwuuvv65CC9OQEuiMwAC1bdtWZx3SA/szBAwBQ8AQMAQMAUPAECh7BGotWrzkfw70BQ7FsKGfSuvWratUSphlFiPDglAV6tu3r04H6rXxjzzyiAoWBBvH3X7IP9fnpSojMyAhVCDYxGnBggW6KjHTlsaJa/zWXHPN+KWcjqdOnebiLmpmcbecClpGN1ubFF5jW5tYmxQeAoVXIvtOrE0KD4HCK1G+vpNqswwUHmT/lijX1Yhhvo8++midcQif/gceeEBXGK7tXJGSUa7PS5Yn55Ix+j4tU6ryS0bpriVLb+cMAUPAEDAEDAFDwBAwBMoDgeTcbHnUPetaHnnkkeoexKxFxCYQe8CaBEaGgCFgCBgChoAhYAgYAoZAMSNgwkAWrYcFAMsAPyNDwBAwBAwBQ8AQMAQMAUOgVBDIeWrRUgHC6mEIGAKGgCFgCBgChoAhYAiUGwK1Pvjgg6IIIKZhGjfepNzax+prCBgChoAhYAgYAoaAIWAI5A2BsphNKG/olXnG+YpqL3NYc6q+tUlO8OXlZmuTvMCaU6bWJjnBl5ebrU3yAmtOmVqb5ARfXm7OV5uYm1BemssyNQQMAUPAEDAEDAFDwBAwBAofARMGCr+NrISGgCFgCBgChoAhYAgYAoZAXhAwYSAvsFqmSwOBkSNHCqs1//7777rS8sKFC5dGMeyZhoAhYAgYAkWIAAt7srjovffeW4SltyIbAlVHwISBqmNndxYQAtOnT5eWLVvKbbfdJmuttZbcf//9ssIKKxRQCa0ohoAhYAgYAoWMAAt7duzYUa6++mqZO3duIRfVymYIVCsCy17VrVv36spx9Bdj5Jbbesj2220rK9WrV13Zaj7Tpk2VjTfeuFrztMwyI/Dhhx/K+PHjZbPNNquQmM5y1VVXCc+jib/77rtlmWWWkfgqzPfdd58y5+lWUQ4zqsLOsssuK8ccc4wuCrfnnntKv379tByVyer111+X9957T3bccccKt3388cdqdWjRooXMnj1bXnjhBWnevLmMGzdORo8eLZtsUvWZrljMbuDAgfpc6pELFVKb5FKPUro33ibFXLfevXvL2muvLauttlpYjVmzZsnFF18sBx10UHju119/1ZXad9111/AcO9mm/e9//ysvv/yyvPbaa1LbrfOy/vrr68KPPjO+uWeeeUZmzpwpDRo0kOWXX95fkr/++kveeecdvReFwLrrrhte8zvF1CapsMQC+txzz8l3333nZtprLMstt5yvnvZJqfBh4Uw3i6DQ322wwQayyir/68PJ591335Wvv/464ffbb7/JRhttpHl73OfPny+NGjXSNqHff+mllxLu8XlsscUWCf1wZcaT/v37C33jp59+WuE3depU2XrrrcP6ZtphDOvTp4/ssssuCe/RxIkT5dFHH5XtttsuxI93ZvLkybLeeusprunyXrx4sTA2kDd1A0vet1q1aultDz74oL6bqcY9lFbDhg2TnXfeOeExo0aNkqeeekqt3PGx98cff5THHntMFixYoOX76KOPNI9MeFC+4cOHy1ZbbZXwrHQHxfSdpKtHKV3LW5ssWrwkqI7fnN//CLpc3DU46bQzg0mTp1ZLntFyMQWqUc0i4Dr+YOWVVw7OPvvspA+eMmVqwnk3MDNNbeA60WDOnDkJ1xzzEDz00EMJ56r74Pzzzw/coBWsuuqqweOPP17p7J944gkt//fff1/hXicEBE5jpOfdYBo0bdo0OPjggwPHiASOYamQPtsT5EWZwe3pp5/O9raU6QqtTVIWtIwuxNukWKvuVl7X9/T9999PqIITvIPWrVuH5+bNmxe0atUqWHPNNcNzfiebtE4QCPbbb7/AMVTB7rvvHtStWzdwK777LALHYAVO4RA4RlO/HceUBk7I0Ot///13sNNOOwUrrbRSsM8++wROkEj6XRVLm6TC8tlnnw0c8x9sv/32wZZbbqn9tGMKFYN0+NAvO8ZUf23bttU8unbtqvf16tUrcIJe+HMWVm3v9u3b6/UTTzxRcXVuNEG9evWC4447Ts9PmTIlvMff75Qair1jWDUNf5UdTzp16qRtSXs6JjtgDGGfX+fOncN8s9lxzLrWhfcjSq+88oqeZ+yCHKOl79U222wTrLHGGoETFvR8sj/axgm7AXXlfefH/v777x8mZ3xwAnR4HN0ZM2aMvsfJxo+ePXtquRo2bBi9Rfed4K3XzjrrLD2+5JJLAtoyE1100UWBU5RlSpZwvVi+k4RCl/hBvtpEogx3LvsPP9Yn6NvvmaDTmeeZMFACL+Ptt9+ugzADcmWFARjbE044IQGFfAsDTlMV3HnnnYHTqAROux888MADCc/P5oA8GHS6d++ekNxplbTzfeutt8LzThumQsCECRPCc1XZIU8YFgQNBpNcKd5ReAFtabRJrnUplfvjbVJs9YLRPuyww/Qb4D2KCwPHH398cPPNN2u1Pvnkk8BZyTRtMmEgm7TOSqb3s4WcxloFAxcPFDhNrDKk5IPQ4KwAAYI6x5DTtCrT6Hy/9fjKK69UgT3OBBZDm6TDEiHgggsu0Dry56wy2kaZ8KGdUD6AGwSTDGP/xx9/6HH07+GHHw6cxUWZ+C+//FLbYMiQIZqEtuBdSNb/IRzE+9GqjCfRshx44IFav+i5yuxnKwxQT8YRhAKEKmcpSfmYAw44QAVe6uvJad8VJ6+MSicMfPbZZ8GLL77ob03YemGA8Zd0nnjnyRPsvTDAOX6ZyISBTAgVx/V89V3VEjPwzbffyfhvvpVDD/3XTOxeVqMiRgDfe35OQ1fpWpx00kny5JNPqltNspvx73faJuditKqaes844wx18SHtbrvtpiZnf9+1114rTgukrjlOAyaDBw/2l8Qx0uI0OIKZGpMpJtB27drJUUcdJa5TF0zZUJs2bYR8mjVrJiuuuKKmcR14mI/f4drRRx+t5ll/ji0mYFzU9tprLz3tBknBXcgxSOIGZXHCkronOU2PbLvttvos3BocMyRdunQR18VEs0vYx0TttJ/itGDiBlo1tSckqKaDTG2C+X/vvfeW1VdfXc3aYPbDDz/o09nv1q2bthVtdvrpp6s7AeZmXEZwETEqXQRwKZk0aZK2ebyWvNt8h76fcNpl/YYdMxNPqt9BNmn5dp1WNnQ7wk2C7/zzzz8XXCScRlZ4n3HFwIXokEMOESYPgBwDLY5x1PeSY6fNFlxKcOcrNkqFJX0dLpHnnntuWCUwGjFiREZ8Nt10Uw2OBTdo8803134SN5oogRnftVOMaJ/mNNTqQklfBdEGEC5HcaJ/wD3ICWLhpVzGkzCT2A55ggP9k7MEab9OP5YL/fnnn4oj7lM9evQQJ+wkzc5ZWHQs4j13zHmYZo899tB4NeLWPOGyRl/phC5x1ip1beMa7yzjZCqiDMTBOStQmIT3G+xxd/JEOfkeILBIN9bhVoc7H2WhTNHx1Odn2zJFIBdrAPfO/XNecEnXq4LPR32hrkFmGSgO6TJTKdEwQWg/KmsZwKULTY7znQycf73mE7UMoMnbYYcdAucPGtx0001qWnVCgKbDzOwYZN3nD+0HeUGYQo844gjd5+/II48MtUWYrps0aRKgsXIdrGpPfLnRpODu9MgjjwRvv/22lssJIGE+0R0nUKjWxWtjcONx8Q/B9ddfr8nGjh2r1zn+6quvgltvvVWPnf9t4Hw/dR8N/xtvvBF47Q7PTEZgU6dOncD5fwb+OW6AT5Y063NxrYG3DGRqEzcwBE4YCBzDFbz66qvq6nXyySfrc8HP+dEGzi9YNa+uq1QTOi4fffv21To7ZivrMpZbwnibFFv9fV+A5Yy2j1oGHEOjLideM4nFDMLlLm4ZyDYt7x/uFj///LPmRZ58v05QDxYtWhTUr19f30O96P5wV0GDjfaffsS7vXDdl5m+JkrF0CbpsIzWBSsILj24zmTCJ3of+/ShTnER+Gf562CKG1bcokKbHHvssar595ppfw9bb9XBQhsl/w5VZjyJ3p/MMoCmm/fxzDPPVO05bptYPdDqx8lbBnA9ou/3P1zJyIN+EgwYf3jPcLm69NJL9ZqLXYlnFzgmWq85IbnCtegJP/YMGDBAxya+Cd/HM4a4WIVo8nCfscMJA8Fdd90VRF2FzjnnnIA64Jbn8cdNyAkBeq9/XrKxzuNFvZziSd3oqG86KobvJF35S/FavtpkGfch5EQffDjEaW3nyBtvvi09et4trvOQx/o8KdOm/5RTvnbz0kUgGpBXlZK4+ABxA5M4P/6E29G0oMG/5pprVEtyxRVXJGg5EhLHDk499VRxPp4aVEXwHNOInnLKKTJt2jQNNHOuSeIEAg3GwjqARt8TWjTnd6zafTdoyEQXOJaMnD+qWhAI3oIIqHMDoD6HYzSWBPui9WLfxQ6oJp00ngiiZnq6Cy+8UK0fqZ7lYgRUs+kGZA2yQ4uJpshbNHx+1bVN1SZ8s86ML860rfg5ZksDon/55Zfw0Vg/sOa4AUitB1hFHMMgYI4FhCA/o9JEIF1f4IRefdfR0kPOvz8lCNmm5dvh2+I7veeee3TLN+GYNXHCs872Qv+BBpT+xblaaNAw7zHB/Wg9PREMStnQ+BYbpcPS14V+B20z36BTTGTEx9/nhDfFjj7UCfQJ7QaGzz//vDjGU5xQ5m/RLTii9eZ5BM5iqYkSAbNOGaIBudHz6d6haLrK7jshUd8RLLXOBUqw+BKQm4qwqkR/S5YsCZMy6YRzlxLHSGsdsDxgjXaCbZjG7/i+0Sm5/KmUWyes6DvL+4xW/ttvv02ZNn6BsQErDWMmVhjaBWtIOko31mHhpl5YeLBaYymgzkaGQM7CQMudd5Iru14qR3c8Qn/LLruMHLDfPq7DWNPQLWMEcJNhIIepZlYQTy44V3dhuj1hCk1FTrIPLx1++OE62DGDhtO06IwmuCfgwgA5K4O67zAw0KEzuwYDGxSd3YgZH2AcUhFCAzNx0PkiUPAMTLYQbjTMcMFgyDmnhRQGVn6esn0WM0LA5DBrBYMaDDkdM0JCPihVm+AywCwvzMJEOTp06KDm8WidcBPwhEkedyhPMC1gZVR+CHgGP5uaZ5uW9xGhH6aT74++AuHTz9gF08cxQgDv7XXXXaffN4IC9zDbhif26UOcxtSfKpntN998o24kMNpO06uKByqXDh+uOy29wGTC5OImgmtllMCcvtO7nkSv4Y7ktNXqzogSBjdHT8zAQ98IM1pTRF/vZ1Hyrjh+jElWBgQfFC7+F3VxxAWHGeKiwiSCDfWMk+//4u5VpMP9h9mAPMGAe8KtEvyzJfpsGHdchZx1V5VGuAKlo3TjT7Qf51uBKlOedM+1a8WNQM7CAIzVhhtuEP5q1VpG1nVz9dZxHZRReSOA1hh/XjQjXjMH40/n7dxwQnDQenhCE4UG0BPxBZ7Q8uHTjyDAzwUNqmbdT9vG4MY0ePycC48yFGi5IaY7zZbI11semDIPf35PLEbDgMKACaNBpw+zEWWcs3kWvq38GEyZGo4fmDAVowt+9o+r9m2yNmEQZ+BH2EKzxsI7tFO0Tn7A9QXymmB/bNvyQ4D3n3cWzXQmqkzan376SWDomFYUxurGG2/UeAEvDBB3gEWR2AIEZ7S0/hrMDtNaevL7TINZSvTFF1+o9hrLJNMhY0nxlA4ftOLEVGDJY6pJ53rpbwu3TJvs3DHDKUe5AJPP/PteiYICwLnkhHFFpMFiCj+AMqGmKMqMIxyhXIlPxZltWVDuEFsStRYQp0JcRZy84MGYEyXGrkMPPVRuuOGG8HQ240GYOMkOVm4sAiioaINM+aW7Hrf08Liowi3J4+1UmSCQPYeUJSD33X2Hm2d3nSxTW7JSRwCzMZ2r1xwTgIoG2vlLCppCTJZRFxM0IQxGmC9hBhjYooSrkPNZ1oEMFyEIRoA5ljGTM0iiyaFD5hnpOsZovtF9BlZcYjCTM7hF50+nLjDGLuZB3Q+wDFC3ympXsApgEXB++WpSZ55rfgRLI2BEBaRo2apjP94mfvDDJA7+4I7GsLJ1qo6yWR7FgwAudAT2YiXLRJVJi2WASQUI1Ie54jvG5RBtNgQDhosDAgZCNOnOO+88vcb35GJ09BzM4eWXX67CiteCaqIi/+N7hUGkb0KzjcAEY4/bDpQOHwKCaQusqODHffxQfniCIaZ/ixLtjLWG/hrrJQoLhDEEC08IXkzSEFcc+Ov52CI4YoFGaQQDjmIIa0FVCMUVwgQuaChEsC6jsIlbTsibOuJ2SV962WWXKRYECuPCgzIK60l1EYIZYxpjRiYXoep6puVTfghUuzBQfhBajeMIRLXGLMASX9qdgQShAE00fpoMPN6nlIGfDphOHY28m7M5XMCF57A4CzNVMIsP2hkIhh9LAUw5DDXCARYBOmsoWh5/nElIwFUIf1yYCz/zBvdyHm0cbge4DBEPwCJllNlT9HnsR49Jw6JIaDTxuY+Xw2vkfNl9nrluo2WItwmaNHyviQvA+uICzZTZwLqCJjB6L+WgzPFzuZbP7i98BHyb+y3CvJ9FKFnpfTquVSYtrhS4zBETgMsGWlG+F8/Qw8jC/OGvjYAAQ4zbEATjxrtMbAvCLX0CDFuxUxRLLAEsEEb8FTOAtWnTRn8uOFermQ4fb3VEqeLvYzt06FC9FysLgkF8ASsUFyw4RzuAu5vWVK666qoEVyKEr/h91YU79Y9i4POlXNQX1xhiBXBJZWypLNGnIUSwCBizONFHwuQjGHilUzxPF0itggjKKcYwlEb0l7ixYjWB4mWO1iPe98fz9/fyPdBGWL384mTcG73fp/VbnxfHydL567Y1BDwCtZgRyB8U8nbY0E/FRdAXchHLrmxTp05zTPGGlao32mYYfjR/vsP0AXAMNBADOIw4Ztt454brCiZ/AnjJI07ECCBY4PueT8JXGcY56l+az+dlm3dV2sTnjfYVrZ93u/LnbZsbArm0SW5Pzu/daCvRTvPLRJVJ6/PiW+c7gxlKRmhvERCizI5PhzsMUzCmurdU28TXn206fKLpKrtPQCt9hFfgVPb+VOkr2yYIgViCsQQhxGDVrA7ivUPYZPxJ9m4lewZWFtIST1VKVNk2KaW6F2pd8tUmtQu1wlau0kSAID/m48evFJMn2mfM1NH5jvFrjAZBeSTQauGXCtOKVj0ZRX1nk12vrnPZuEZU17NqKh/8gLOZwaSmymPPKWwEkn2jqUpcmbQ+D5irVMw8adIJrawZwq+cKR0+ueBSaMHYvCfVJQiAC/lVto7ZCMS5YG73GgL5RsCEgXwjbPlXQACmHlMqQgDWAXxY/WI2FRJHTqCxwQSMT3uhaeQjxbRdQ8AQMAQMgTwjwAKVG0dm6snz4yx7Q6CkETA3oZJu3vxWLl/mqvyWurRztzYpvPa1NrE2KTwECq9E9p1YmxQeAoVXonx9JxZAXHhtbSUyBAwBQ8AQMAQMAUPAEDAEagSBWm4hi6IIIAaNxo03qRFQ7CGGgCFgCBgChoAhYAgYAoZAOSBgbkLl0Mp5qmO+zFV5Km5ZZGttUnjNbG1ibVJ4CBReiew7sTYpPAQKr0T5+k7MTajw2tpKZAgYAoaAIWAIGAKGgCFgCNQIAiYM1AjM9hBDwBAwBAwBQ8AQMAQMAUOg8BAwYaDw2sRKZAgYAoaAIWAIGAKGgCFgCNQIAiYM1AjM9hBDwBAwBAwBQ8AQMAQMAUOg8BBY9qpu3brnWqzPR46SW3v0lDfefFt/Y8aMld132yXXbBPunzZtqi0wkoBIfg/++ecfcTNNyeuvv67LsidbYZEl2FdddZWwIH/++afce++9unoji4Mlo3Hjxsl9992nK92mWuWxf//+8uabb8qnn35a4Td16lRh9V8WLtt+++2ldu3EdfNYlj7VtZEjR8rTTz8d5jl8+HCZN2+eNGrUSGrVqpWsuEV3Lt4mCxculLvvvltX1YyvAks7rLDCCuFKrmA7duxYXf150KBB2o7LL7980WFQaAWOt0mhlS+b8vz++++6UOB3333nZnVrLMstt1x426xZs+Tiiy+Wgw46KDz366+/6ne46667hufYyTYtCwy+/PLLusAg3zgrzEa/0dGjR8szzzwjM2fOTPmesqjh+PHjZbPNNksoAwel0CbpMKB+4DNlyhRtL1Z195Spbx81apQ8++yzMmfOHB1zo/f6PJ544gndXXfddf0pmTFjhjz11FPy/fffax9C3xIn8uzVq1fSvjveJtmMJ/H883U8adIkeeSRR4RxMN2q2Pl6/tLKN94mS6sc9tx/EchbmyxavCTI9Tfo1cHBfb0fDmbMnKW/WbN/yznPeJmYAtWoZhBwHXbglrLXX9u2bQM38Addu3at8PApU6YmnHMdJtPUBm5F4YTz/sC9xMHmm28ebLPNNoFj6APSJ6NOnToFO+20k/5c5xusttpq4XHnzp2DYcOG6XMcY1Hhdsfg6zXHjFS4dvvttwduYNO8dthhh8CtXhm4peeD448/vkLaYj0RbxPHLCke6623XkC7RglcH3roIT31xx9/BE6AC5o1axasvvrqwQYbbBD8/fff0eS2X0UE4m1SxWyW2m2OMdQ+wAnfwZZbbhmsvPLKwUcffRSWp1+/fkHr1q3DYydgB61atdJvPDz5/zvZpHWCQLDffvsFjvkP3MrkQd26dYPTTjstzOrBBx/U73aLLbYI3ArmgRPmg3hf4BhlLefZZ58d3hfdKfY2SYfBkCFDAseIaz/nBCFtB6ck0epn6tud4iBwCoBg7733DtZaa62A+//6668odMGAAQO0T3HKhPD8wIEDAye0abvTrzqBMZg2bVp43e8cccQReq8THPypcBtvk0zjSXhjDexceOGFWu4OHTrUwNMK5xHxNimckpVvSfLVJhJnuqty3PepZ4IBz70YTJg4OViwcFG1CwKUyYSBmnv5b775Zh1k/SDQp0+foF69egEMY5TiL2WmzvuLL74I7rzzzsBpfAIGs/feey+aXdL9Aw88MDjssMMSrqUTBkjoNF8J6f0BwgCMbpQeffRR7eR/+OGH6Omi3Y+3iRcGENJOOOGEhHrFhQFwhb799tsKbZ1wox1UCoF4m1Tq5gJIjBBwwQUXhCVxFoCEbxJhmj4D+uSTT4JNNtlEvykE/jhlkxbGkveVLeSsESoYOGtVsHjx4mCllVZSAR6hgT6qRYsWCQI93zkCBMJEKQoDmTBo3769ClNgR1/YsGHD4Prrr+dQ2wkBKlnfjqAAtnfccYemddYgFaiefPJJPeYPBp8+lPbxwgDPaNq0aXDeeedpOmeNVAXOrbfeGt7HjrMm6H3cW0zCwJIlS1QwOvbYY1WZlEzISahoCR0Ue99VQk0RViVfbVItMQOOSZTBzkXornt7yRVXXiNfjvnKfe9GxYrApptuqu4+3gXHafNl/vz5anLPpU645OAC5DRO0qNHD8EtJRe6+uqr1cUFU/Xll1+uWX311VfitJfy22+/ZZW1G8Q0nRscs0pfrIlOOukkcYO64P6TjPbff3/56aef9BLt7YQ2cVYYueiii+SMM85IdoudKwMEFixYIMccc4yce+65YW1xuxkxYoQeuxFK3nrrLXGafD3GBWS33XaTnj17hun9TrZpv/zyS1ljjTVCtyOe56yJ8vnnn8uPP/6orn28z7gN0Ucdcsghggugp9tuu034+TL586WyzYQBroGewAiXLtypoHR9+6uvviq4ZzktuMyePVtwD5o8ebIcddRRei/td/LJJ8uhhx4qTvuv5/zfY489JldddZUe8nxckfh5cooiOf/88+Xaa6/1p3LeOsFTjjvuOHXdoc/CjcdTmzZt9FnO0ikrrriitGvXTl2muE49rrjiCnFCkjB2dOnSRZyVSV3Y/P3R7SuvvKIuU064kfr168vDDz8cXh4zZoxsu+22+ixc2XBhJT+eYWQIFBMC1SIMHN6hvdx8Q3e57eYbpE3r7WTIVAAAQABJREFUVvLW2+8WEwZW1hgCzpSrA6w/zcBOR9e8eXN/qtJbGE0GZ6c1FOdGJB07dtSBhbiEqpKzNKgf8znnnKODv3NdEAYi/JqjA1E0f5ibbt266Q8Gx5l95ZRTTpEmTZpEk5XcPnV0VhZl8J0GsEL9nGUkQYDC/3f69Ona7vh5G5UnAjBSl1xyiTKRIABT6Vx95IADDlBA8FuH4fR9g7O0ibMkitMeVwAs27TOhU+IUSDuAFq0aJFMmDBBv2viFWDI8Ev3RFwADLL/5p3mVpyWOiHGwKcthW0mDLp3766Ck3O1VMUIuDgLiVY9Xd+OcgZ/+H333VcVNvjHwzT7mIG77rpLcSYGKUrO1VJ23nlnvRdm31lqlNGmz4F4vrNKKuPu35vo/VXZ551wFmMVXl577TVx1hA5/fTTQ2UH74uzcChjjgKEWLUbb7xRH8X5+++/X/7zn/9o/ALXGTOcBSBpUXinnduUxkE464AKHc6FUtMy3iC8MqY9/vjjcuWVV2qMFsdGhkAxIVAtwsDCRQtVOqfizZs3k0lOm4CGwai4EaAN0ebQWfbt21eDfqtaI4LZYMTRNGMZQLOHVh7GoarEoLTHHntop07AMh16JqITJ3DY/7BWwDwQeFzq5OIDlLGiTbMhtFtoXmHOjAyBn3/+WfbZZx/VfqIlhd544w1lHhEIIOeeo9tkf9mmhRnFMnDwwQfLPffco1sskzBederUUUXCNddco9pY3uUXX3xRsOx5Bq3Ug94zYUB/Tb+G9p5JA7DcO9e/hCZJ1rejAECD7+KL5JtvvlFG2blzKpPLxAJo/hkHXMxIQl7RA/J1bkhq9X3//ff1Eu8KeWMNri5CIKVeWANcfIoqg7AI+8BmnoOyx8WayF577aXv0MSJE/XxjEVYN7B8Hn744SowpCoXSiwms/CCzamnnqpKEqwFUWIs4r3FqsJY5J8VTWP7hkAhI1AtwsDzLwyUDz4coqaxL74YI1s4kx3aAqPiRcD5pcqRRx6pnevgwYPVzJpLbRhkGCjQsKA54ofmGXN0VQkzL4TmCk0k2qJMhLaLzp0fAgGDHu4HvXv3znRr0V/HugNzxYwfzNSSjhAEPv74Yx1w0aAZlTcCfCctW7YUGO0hQ4YowwMinsHPBp1s0yKAwmyhNEBZgIYbLTBWRcjFJ+gxQgBWq+uuu06ZXpjkcqFUGCAQ4eLH9eeee07eeecdZXgvvfTSEJpUfTsCGOM2TDtuN2eddZbO+oOWG6Ya/BEKmK2NGU2wxOIiFiUsA6SH2cYCi8URwQ3XMQQJygShRUd7X1XCRQhrlItlC7NAKECx4yk6exr9vhcWsSpFFRy816mI9w/LBsorhCAX0K5J4+NFqmelytfOGwKFhkDivIxVLF37Qw6S/gOek1deGywbbrC+dGh/SBVzstsKAQE0+Pjhfv3118L0fNttt13OxXKzE4kLTtPO2nfgMOHptEyZHlodAqebNUc1aDA75UCY659//nk588wzhan7PCFQoXn1hKDG4MpAblTeCOCOhxC/4447KjPHdwzBEH722Weqmc+EUGXSoo2FYcP9A4sDgimuMW5mM30MDKj3+eYEbkxeUMhUjlK5ngoDfPxRikQZXBhfNOkIATC2qfp2lCv0qb5/BiuwR9ONYIbixltysTygTAF3FDsnu1gCXGQQ3CCECeLD0N7z3tC/8uM+CKGActGuVSH6bfoxXHu8JYjxBOuAp1TjA/2aj3khLfVIRcRCHH300XLZZZeFSVxgu7iAbBV0/MlUz/LXbWsIFDoC1SIMNGy4kXS97OKED7PQK27lS40APqdod+gIGcQRCCA0MW4GmtQ3/v8VmAfvZ8op/I4x+cNYMoijMSLwCv9RAg4J3qopwp3A14eBhEEVX+ZogGRNlWVpPQfT/1ZbbRX6WFMOrAYMcsRyMFCCC+Z1o/JGgG+EAFI0q6wl4AN1+b7x6Sewl6DJTER/km1aLAMEreMahPDqZgdSBhdLJYQrCK4eMKb0NQR0omkuJ0qFAcHWaKnxjwcfhHq02CeeeKK6WMHUpurbsb7g5oIrJwHYuBvRNzIeIEBEibVZEMKI14JoKzf9tAodaPxpEwRIGP6hQ4eGt8KwIzCwfk228/UnG08oz0033aRjCgG7WJKy7ceJE6OO4EIAMdbSZITlA8sGMQNRhRjuV+BDP0oMhpEhUBIIVGUq0aVxj00t6nQ0NUTMI+5e7go/14EnlCA+xZXTSlW4h3yYmxxyA5hOOcc5Z5IO3ECSkF+yA6YxdH6dCZf81KJOUxWeZ65xprpzWh4tQ6p1BqL1cm4FOg2iE1LCfIp9J94mfmpRJwAlVM25CilOfp0B2papRsHHDZAB0xOCvVHuCMTbJPccay4H5yKY9Jumj3AMe+D8yJMWhm/daZPDa5VJy01OSRA4AVWnB2Xti+g0xG5RLJ1D31kNAsdQBs41JXxOdMcpG0pyalHqmA4DZ63R9VzAh+/ZBfcG9M1Qpr4dnFljhPuYZjQVtvS3tJEnp9wJ3IxkutYA9zpBIHAxJv5yuHWKBs07m6lFM40njpkP6+OCygMntITPYfpUrntygkvgZhTSQyfg6lS5vDusp+NcmrRM8bUqXJyArkXj3Ft9NuHWzbClY5hzpdR7o2NR/NnhTUW4U8x9VxHCnVWR89UmtWDs3cdb8DRs6KfiFrYp+HKWUwGnTp3mVv/csFJVdm97OEtNPkyr+IwSD4DGBvN2uVFV2sRjhAsBQaKY4H1AqL9m26ojkEubVP2p+b+Tbw2LAb9MVJm0Pi9ijIgJSKVBJigV95Wq9COl0ibpMOBbxoWGWIDKEq5aYBtdaTqbPHAlwmqUjQU5nl9V2oR3BOsHfVa27wGxC7itEvALEYTM7FO4TdauXS3OEvGqFe1xVdqkaCtbJAXPV5vYm18kL0CpFBMmMxpsVd31Yp0Bt4Kx7LLLLmUpDOSCJ4N4Ptsml7LZvYWHQGXelcqk9TWFuUslCJAGhq7cKR0GzApUVcJtsCpUFcGjKs/x9/CONGjQwB9mtUXAIQ4A11CUUwRE45ZmgkBW8FmiEkXAhIESbdhyrRZTH7LgWDlaBcq1za3ehoAhYAhkiwCxJyilsCBjDb3lllt0tqRs77d0hkApImDCQCm2ahnXqaom6jKGzKpuCBgChkDZIIAFAMsAPyNDwBD4HwK2GIC9CYaAIWAIGAKGgCFgCBgChkCZIlCLWXqKpe6NG/9v0ZliKa+V0xAwBAwBQ8AQMAQMAUPAEChkBGw2oUJunQIvW76i2gu82gVdPGuTwmseaxNrk8JDoPBKZN+JtUnhIVB4JcrXd2JuQoXX1lYiQ8AQMAQMAUPAEDAEDAFDoEYQMGGgRmC2hxgChoAhYAgYAoaAIWAIGAKFh4AJA4XXJlaiKiIwcuRIGTRokPz+++/iViOWhQsXVjEnu80QMAQMAUPAEDAEDIHyQMCEgfJo55KvJatQtmzZUm677TZdOfP++++XFVZYoeTrbRU0BAwBQ8AQMAQMAUMgFwSWvapbt+65ZODv/XLMV/LU0wPkgw8/kla77+ZPV9t22rSpsvHGG1dbfpZRegSWLFkir732mrzzzjuyyiqryJprrlnhhrlz57rFvVYJz6OJv/vuu3VZ+PiKo2jqYc7TrZgZZlSFHdYXOOaYY3QRmT333FP69euX9fL0/nGvv/66vPfee7Ljjjv6U+H2448/VqtDixYtZPbs2fLCCy9I8+bNZdy4cTJ69GjZZJOqzXS1ePFiIe8+ffrIhx9+qFivu+66uihO+PBK7BRSm1Si2CWdNN4mhVrZ7777Tp5++mktXvz79WXu3bu3rgq82mqr+VMya9Ysufjii+Wggw4Kz/3666+6suuuu+4anmMn27T//e9/5eWXX9Y+qLabF54VcVkoyhPf3DPPPCMzZ87UFWiXX355f0n++usv7bfov+hz+J7iVCxtEi939DgdBjNmzJCnnnpKvv/+e11VPKoYydS3jxo1Sp599lmZM2eOjrn0rZ5++OEHzbdOnToVcMUi+9xzzwnvUePGjYWVfuNEHzd+/HjZbLPN4pck3ib0jXfddZd8+umn+vvss8/km2++kQ022EDq1auXcP9HH30kjz32mGy++ebahyZc/P+DP//8U+699159X6qyKCXvWvy5yZ5TSufibVJKdSvWuuStTRYtXhLk+vtsxMjg7PMvDga9OjiYMXNWzvklKw9ToBrVDAKuUw/cABq4Dj3YbbfdAjfQBs8//3yFh0+ZMjXhnOssmaY2WG+99QI3kCRcc8xD8NBDDyWcq+6D888/P9hoo40C19EHjz/+eKWzf+KJJ7T8bgCtcK8TAoKOHTvqebdqZdC0adPg4IMPDho0aBA4pqNC+mxOzJs3L3DMUuAG26BVq1b6Y3///ffP5vakaQqtTZIWssxOxtukEKt/7LHH6ne+1157BfXr19f32zGNCUV1K7Xq9/H+++8nnHeCd9C6devwHO8177NTIITn/E42aZ0gEOy3336BY/6D3XffPahbt25w2mmn+SyCBx98MFhmmWWCLbbYQr/3Ro0aBU7I0Ot///13sNNOOwUrrbRS4FYjD5wgETgBJ7zX7xRDm/iyJtumw2DgwIFab9rAKdC0H582bZpmk6lvd8ocfQ/23nvvYK211goc0x444UrvveyyywInBARccwqi4LDDDguL5oSHwDH/wfbbbx9sueWWwcorrxw4Bj28zo4TXvT82WefnXDeH8TbxCld9H1zihZtU/pc8nWCTeCUJ/423f7xxx/63PPOOy/hfPRg0qRJmt+7774bPZ3V/ieffKLjWlaJSyhRvE1KqGpFW5V8tYkkY7wre+6a624Knn9pUDBx0pRg/oKFJgwU7Wv2v4J369ZNmVw/CJxwwgnBDjvsUKFW8ZfSCwMIBNwTpXwLA/Pnzw/uvPPOwGm1AqfdDx544IHo47PaJw8Gue7duyekd5osHUTeeuut8LyzgqgQMGHChPBcZXcOOOAAZZimTJkS3uo0Z8oEVUWYIZNCapOwUmW+E2+TQoPDaXKVuXYWKi0aTBgMV//+/fUYRhvGj++aX1wYOP7444Obb75Z08I0wbyRLpkwkE1amFnuZwtRPgQDFw8UOG2xMvrkg9BAH4WgzjHk3AMD+hqnGdfjK6+8UvsyhIQoFXqbRMsa30+HgVdUeKaYfgo8br31Vs0mXd+OAgch6o477tC0CA4w308++WTw22+/BU4rHjz66KN6bejQodpG9I0QQsAFF1yg+/w5K1GCsHD77berUEc7VlYY8O8B+VKfE088Ucvy448/ciokjh9++OHwOL6TizDgrFA6NsTzLPXjYv5OSrVt8tUmOccMOMBl6rTpMnTYZ/LQI4/Lf5zX0fhvvnV9uVGxInDyySeH5nnq4DR96n6TbX1OOukkcQOIutUkuwf//vbt2zsXo1Vl6623ljPOOENdfEjrLBHy0ksvhbdde+210rlzZ3XNcRonGTx4cHjNMeeyzTbbaKDwggULZPjw4dKuXTs56qij5MsvvxTH3GvaNm3aCPk0a9ZMVlxxRU3jGPAwH7/DNZaox7weJVx4nIZNnNZUT7sBR3AXcgySuEFQ3OCm+IwZM0a23XZbfRZuDbhWdenSRfhG4oQJnrr07NlTzdb++h577CHEOzitnD9VLdtMbYLLgdP4yeqrry64XIAZLgEQ+46J0LaizU4//XRx2jXZaqut1GUEFxGj4kUA9z7HLOq3Ry2cZUDfv88//1wr5ayy4hgpbfN4LXm3+Q6dJl8v9erVS/PhvY5Ttmn5dtdYY43Q7QiXEr5zyuMYPu2PeJ9xG8KF6JBDDhEmD4CcMCIHHnigvpccO8ZRpk6dqu58HJcCZcIAd5mrrrpKq0rbOgEh7L/T9e2vvvqq4J514YUXan+Le9DkyZO1P6XtFi1aFMKHmxCEOxh9Ly6a5557bnidNhsxYkR4TCwXP/+ehBcqueOsRMI7Rh+FKyjk+y7cO+mLo31XZbL3+cT7wG+//Vb7ccZBZ41SbCqTr6U1BIoCgcpaAeLpf501OzjptDODMV99rRaBl15+Neh5d69qtw6Ym5DrjmuYHLMatG3bVrWEyVxh4hKqtwzQVm5AVlcjtIxQ1DKAJg9Lw5tvvhncdNNN6iaDOxK09tprh9onjs866yzNi33KcsQRR7CrdOSRR4bap3333Tdo0qSJag/RZOG+4zVQ7KPheuSRR4K3335by+UEEJ9NwtYJFKrxcv6peh5Nm/OfDq6//no9Hjt2rF7n+KuvvlKNm/vQAxdvEAwbNkyvYZ5/4403AscQ6THPjBPYch/aquqkqraJY+zV/O8YrsAxBWoSd4yDFg380BQ7IU01r5TbMWsBLh99+/bVerjYieqsRknlFW+TQq/cgAEDtE1dvJAWFU00hOWMto9aBhwTHrg4INXSkwbNLYTLXdwykG1a3j/c5X7++WfNizz5fp2gHjiGVN2YsAB4Ou6449S1Be0//UjXrl39pbDM9DVRKrY2iZY9EwY+LRbOTTfdNHAKlxBLfy1Z337jjTeqWxFuQGjw+TlFTEAfCDlmXt2PuI4rJtaiuMWFdFhlcDHiXk/+HcIa6vtlf81vo22CxYf3jPcNSwUW36+//tonVfcxp/TR43R9V3iD26GvJb9UbkKp8gFvLCtOWRQ4QTV0m4rmXar70TYp1ToWW73y1SbLuI8jJ0KbuqIL0iLIFNp0002cNqGi1jWnh9jNSwUBAq4aNmyo2jcCyipDLj5ANUnOjz/hNudWoxr8a665RpxPr1xxxRWyyy67JKRJdXDqqafKK6+8olOHEqzGNKKnnHKKOH9YcYO9ONckcQKB7LzzzqrNQqPvCa2V8ztW7b7z9ZeJEyf6Swlb52+sFgRvHUAD7pgSfQ4J0Vg6s7U49wPdd36sqqUijSeCqJ1woho2NOnJnvXLL79ocick+dvyvk3VJm5AF2fGF+eapPihGSYg2peRgqFxw5rjhDO1HmAVcUyYYo4FhCA/o+JHAGsV2mO+W6xsEFrYVOSEXn3X0dJDaG5TUbZp+Xb4zvhO77nnHt1i5UPLjUbaxe4I/QfWPsr54osvatAw7zHB/dEgTwJnKRt9WalQJgx8PdHyuxgqtYw4xtqf1m2yvp2gY8cwi4v50kBdNPAuNkH7BdITsE27MCbwzWNdxcobJfpB+nWuY23ylO4d8mmiW4IkL7roIj1F0PqZZ56pfa5PQ7+KdTWbvsvfk26bLh/w9uMgFiqsUUaGQKkhkLMwgCmxWbOt5MMhH2uHPHLUaOdO0LTUcCrL+jjNuw4EzndYZ7vBjJot4SbDQA5TzawgnpjdAoLp9sSUoKnISe3hpcMPP1yZAWascNpLgZHG7MwABjkrg7rv4MLjrAA6mwXMARSdHQXBlc4/FSE0MPBhXkeg4BnMYAFhQkbwYLDjnNNCqmmdgddTNs/CnQhiZo044fLAjB7VTanahMGNWV6YhclpYKVDhw6C0BatE4OhJ+dXrO5Q/hgGEKyMihsB5w+ujDcMNgJtNuQZ/OpMy/uI0I+rHN8ffQXCp5+xy8Un6DFCAO/tddddp983TBv3wEh6Yp8+xFm3/KmS2KbDwFcQYQllxqGHHqpufv4822R9O4y+C8yWHj166Kw8CP64QZIHMzN98cUXqsjBTZJZ1BAGEBY8MdMPfTmM/5AhQ9QN1F+r7JZ+lpnsIMrDTEJR91EULLh9ZtN3ZfPs6sonm2dZGkOgEBHIWRigUvvus5eM+WqsXHhJV+dDOEv2ardnIdbVypQlAldffbU402yYmunaIO9DHl7IsIOmHn9etDpeM8dgwZRzdO6e8PX3hHCJBtBTVPOElg+ffgQBfi5oUAcDP12pc00QF+imP+fCowwFWm6IQS5bIl9veWAA6tSpU3grU9M51xhlUmA0YNphNqKMczbPwt8eDSZljhJ1Z/C+4YYboqerbT9Zm+AXjA82whYDPBpC2ilap/g0gV4TXG0Fs4yWKgL4+BO7A+PlZg3Kqiy8/3zHaIIzUWXS/vTTTzolJgwogrFzX9F4AS8MEKOARZHYAqZCxYLlryG0OneSsDh+3804FJ4rhZ1UGNBvYcGL+uvTf/NdO9cbSde3gx19V9SyQt+GFh5GH2UClgYIhh9mnPgFCEHBuUcKllKmZ0awyBdhhUSJQoxANn1XNuWornyyeZalMQQKEYFqsXdt4DqJG6+7RpxfoGpuC7GiVqbsEUCLRhAZwbxouXGJQWNMcGtlCc0RjK/XHDOwoIF2Pvf6rhB0S+eOaw/EgMMc/miuGNAY9HzgLtdxFfJzl8OYQzACBCJjlnY+sqq1h6FGe48Wv7LEQMaAes4556j7W3T+dObohjF2MQ/qfoBlgLrx7leGyAO3HVxtsFSwJRiP9RgQaJhfO18UbxPqBBGgDf4wYbiLJFtvIV9lsnyXHgIw9Jdccom6fG233Xa63gWlwV3EKwKSlQ6NMW4TfGeZqDJp0dIimOAahPCKCxvBq/QJEAI0ljusBjChaKpxcYNwcXJT8+o5mNPLL79chZXqDsjXhy3Fv1QYYC0FN/olAmyx8IEPkwPQ56Tr23H5pd/HPYdgX9wwsQZ3795drbBYGnAdog+mf/jggw+0f6X/YNIG+jEmE0CAg1DsuKlhc0YJxY6vF0IJAitjE+5i1A+qTN/FO0PZPFFv766ZKh+soeAKHrzz0ft9PrY1BIoagXhAcKEeu47HKSmMagIBgr0I3HWmWnx0NIDWMeUVHh0PZPEBxEyPGSXnKqT5+HUGnIk3cAKBBmQ57VLgBAENDuYeAnFdx6zpWevAMeU6TV00P9dhB45RjZ7S4DLHyOh9TmsVOH/nMDiXtQec32mY3jE+ej08kWSHgEPqHg1GJBnBcX5tAJ5D+SiLi10IA4h90DTp48/mXJScK5Xe7wYXncObwOtkwdrRe9LtV7VNmBaQaQWpk2MAA8dUaTsQyBevg5tZKQFPAqydgJGuWGV9Ld4mhQaGY+70Xed9j/54p6PkZo3R674vJgjfzVoTTRLuO2ZVg0j9icqk5R7HdAZOMNUgVvoIpgv2RDApawkQ4MqEA45J9Zd06xhSDUCmLi4eKaC/iVOht0m8vPHjdBg4BYuuVeKEKm0vAn59MHamvh2cnfuj3kd/EMWWqZsJogV3+iunLNFiEYwcfW/8PkHfcco2gJj7mOrU58WWZxKszrSp9MOe0vVdPg1bp/1PyM/nzXgCpcuHdRpYP4d7mGShXKjYv5NSbKd8tUktmH/3ghc8DRv6qbiFbQq+nKVUQDQ+uIyk8redOnWau7ZhpaqMBh2rAJo/b3L2AWd+9VM07QSi4ZMfd0fBdQWTP9YK8ogTMQKYsLFk5JPwVcZtKWpSz+V5uFFgokcDlQtVpU3889C+usV78rZKtH9OuW1zaZNCxorAfbTB/DJRZdL6vPjW+c4cw+9PJWzpm9D4J3PLY7pLpoJMdW+ptEk6DOgL0WB7rXcUvEx9O65aYBt3DyTWCtdNXDPTBYtHn5Xtfi5tUl19F/lgZcLSjGUpSo6x1Hcq32NL9JlLez+XNlnaZS/V5+erTarFTahUQS/3esFUpxIEqooNQX64BhGkytzUmIBZoh6zsycGsGgQrj/vFhLTmXzosHGrSUb59FWNPi8b14ho+kz72TBUmfLI9TqDe3UP8LmWye4vXASSfaOpSluZtD4PmPxUzDxpfKyQTx/d6ix3zv2j1CkdBun6wkx9O+6Cyai2c+GKTiaQLM3SOFddfRf54KpJzFRcGEAxVU6CwNJoR3vm0kPAhIGlh33ZPhmmnhmBEAKwDuBPnI1vKZpCYg7waa8ujXzZNoJV3BAwBAwBQ6ACAm69mAoWkQqJ7IQhUGIImDBQYg1aDNVB6+T8M/VXmfIy1z0/I0PAEDAEDAFDIB8ImPY/H6hanoWOQPbzLRZ6Tax8hoAhYAgYAoaAIWAIGAKGgCFQKQRqMTNEpe5YiokbN95kKT7dHm0IGAKGgCFgCBgChoAhYAiUFgI2m1BptafVpswRyNdMA2UOa07VtzbJCb683GxtkhdYc8rU2iQn+PJys7VJXmDNKdN8tYm5CeXULHazIWAIGAKGgCFgCBgChoAhULwImDBQvG1nJTcEDAFDwBAwBAwBQ8AQMARyQsCEAQefW0lR561n6kojQ8AQMAQMAUPAEDAEDAFDoFwQKPupRd3S4rriIHPeJ1vJslxeBKunIWAIGAKGgCFgCBgChkD5IZCzZWDosOFywUWXhb/zu1wiF158ubB0dz7pzz//lB49esjUqVMTHvPpp5/q+VGjRumiVs8++2zC9fgBwkDHjh1ls802Cy/98ssvmgcr3cbpwQcf1BV04+f98Zw5c+Saa66Rt956y5/KuE33vIw3RxJkKptP+sQTT8htt93mDzNus803U0ZDhw6Vzz77TJMNHDhQJk2alOmWSl1HoEvX3n///bfccMMN8tRTT1UqX0tsCBgChoAhYAgYAoZAqSKQszCwS8sWcnfP28LfQQfuL02abCEs3Z1Pgum+9NJL5fvvvw8f895778lee+0lH330kWy99dYyaNAggZFNRaQ7//zzZeTIkQluQggY5D1v3rwKt954442CwJGKVl99dUFQ6dSpk/z111+pkiWcnzx5sj5v/vz5Cecre5CpbOQ3ZcoUOeOMM2SDDTbIOvts8s0msxVWWEEOOeQQ6dChg5x33nmy9tprZ3Nb1mkytXft2rVlrbXW0rZBADMyBAwBQ8AQMAQMAUOg3BGoVjehv//+R9597wPpfPqpNY4rgsDBBx8sBxxwgPTv3z+r5cR//fVXefLJJ2X33XeX5557Tn766SfZcMMNZaeddpJ//vmnym5Dt99+u1oaZs2aJeutt16NY5Hugb///rtgGTj22GPTJcvLtW233Va++OILwRoD7iuuuGJenpMu086dO8tKK60kCJPrrrtuuqR2zRAwBAwBQ8AQMAQMgZJHIGfLQBSh4SNGyOqr15fGjRtFT+d9//3331dBAK3zM888kyAIzJw5Uw466CCpV6+ebLXVVjJ48OCwPDDr9913n2yxxRaC28rs2bP12ldffSVbbrml/Pbbb2Ha6M4777yjeZHnPvvsIzwDwiJw5plnyiabbKKa7912200GDBig18aMGSMww9dee62sv/76suaaa0qXLl0S3KmuvvpqWWeddZRJvfzyy/W+ZH+427Rt21ZYNn3PPfeU119/PUyWqWxgdOKJJ7o2alypsqXKN3yw2zniiCOEOnhC8ABzBDWPzS677KKWgW222SZ8Pi5LWFIQ5mDUcdl6+eWXfTYJW9Iec8wx0qZNG03brl07GT16dJgmXXt/8sknagE666yzpH379vLII4+E95EfbdOsWTMVUsgXKwqEy9sVV1whDRs21Lah3XhneH+MDAFDwBAwBAwBQ8AQKGoEFi1eElTHb+GixUHXK68JPhn6WbXkFy8TKyVHyfmbE5QQdOvWLXAa5sAx0cGSJUuiSYKLLrpI0ziXn2DIkCGBY9wD55qiad58883Aua0Et956a+AY3cAx15qHEwAC59eu9znLQUJ+HDRo0CBwTHjgmPzAuaUEjqkPzj33XE3XvXv3YNVVVw3eeOONYPjw4YFjbjWtszIEw4YN0zxbtWql13v27KnHb7/9dnht1113DZzfe3DdddfpNfbj5BjUwLkiBUceeWTg3JWCCy+8MFhjjTUCp+nOS9l4fro6R8vnYjgC54YTOPcoPf3QQw8Fq622WrBw4cIgHTa+najLxx9/HDiBResEbnHyaZ3Qpe0ExhtttFEwd+7ctO1NGWj7o48+OnDuYQHvBO+PEzr0Eb6OTkAIaBNnNQicO5Vec5aeYJVVVgkeeOCB4Pnnnw8aNWqk906fPj1evKV+PGXK1KVeBitAIgLWJol4FMKRtUkhtEJiGaxNEvEohCNrk0JohcQy5KtNJM50V/V4+Oejgosu+0+wYOGiGhUGYOgOPPDAwM0EpAxnFDYYx4033jg85TToysQ5jXWw9957B047HF4bO3asXnv66aczCgMwkp5OPvlkzYtjF7SsjL0LVA2+/vrroGvXrponjKoXBkjjCcEBhtlfGzFihF7ifq49/PDDPmm4dS4+gYvHCLygggD06KOPBs7FSZn26i4bD4ZRTpVvWDC3M2PGjGC55ZYLXn31VT3t3K+Cs88+W/fTYUM7OWtKmJULvg7bKTz5/zukRRjzgp9vN+5J195gWadOncDFgYRZOutP4OIX9Jg6Ou1/eO30008P23WHHXYITjjhhPDa3XffreUzYSCExHbSIJCvzjvNI+1SBgSsTTIAtBQuW5ssBdAzPNLaJANAS+Fyvtqk2tyE3nzrHdmzbesq+9lX1bzCGgGO+dQAXKdRF2dBSMgK1w5PBI9CixcvFlxGcOPxhDtL/fr1Zdq0af5Uyq0TMMJrBMGSH1S3bl11J8F9yDGQ6nrEefe+sFEiJsGT0zYLM9x48mVddtllnbvV6pJsNqPx48erGw1uRpBjvuXUU08NYxPyVbZU+fqyswULJ5hJv379ZMKECeK0/HLKKadokkzYOGY8zApcoCg24UW306JFi9AVjHYDbx9I7jEkfby9mzdvrml9Xs5Kk9DeqdqGvGlPTy1btvS7tjUEDAFDwBAwBAwBQ6CoEagWYWDipMkybfpPsvuuu9Y4GIcddpg+8/rrr1ef/OOOO04IDPYEYx0nmHNm0yGY1RPMKzEC+IJnolTrEcD4IhgwfSYzETHFKBRdzCzVvaRLd43rEAzuxIkTw5mOyPuyyy4TplKFUuVRE2Xj+Qgm+Ps7Tbz63++4446cVqEgHTapyq03x/4QiDx98803wixMfmrYdO09btw4cRYFf6sGMm+++ebhcaoyIDQ4q02YzrmAhfu2YwgYAoaAIWAIGAKGQDEjUC3CQKONG+rUonXr1llqWKAhZ/54glYJkI1q45MVigDS1157TbX3TCVK4CvBq2idq0owu8we1KRJE3EuJHLLLbdoVt5yUNV8o/ftv//+KlwwXz4BrPfcc4/07t1bnN98NFmF/ZooGw+lfM7FSVwsRmgV4Hx1Pp9Zn6g3GIMDQdeZ2o3AaYQGBDTnzqTBwwQeEyiciZgK9ZVXXlGcX3rpJX12pnvsuiFgCBgChoAhYAgYAsWAQLUIA0ujon4dA7+lDDDhd9xxh7gAXrnzzju1WNHr0XLC/MO4Hn744cpIo81nVh6mm0x1D/fHr3HszzEbDdNm4ubStGlTzR9ts9fax++P3hu/luyYc+SL1h0BACsB2/vvv19nJ/LlIB0UzT+XsqXL939P+vefufwRxtgef/zx4YVMz48/I7wxyQ4C10033aTTwLp4C7VEIIBAqfJBWACnXr16aRtjTUEw8G5M8fs49pYC6kM6FwQtzEREG0AuBkG39mcIGAKGgCFgCBgChkCxIlCLgOFiKPywoZ9K69atq72oCxYs0Gkv0S5XFxF3AMOazGWlup6Be9DPP/9cqcXDeHZNlC1dHXN9/sUXX6zuXW7GH2HhMKZprQyBGxYF3MQ8s5/p/r59+6r1Yd9999WkTEnKomlMl4rQU0g0deo0adDg37iUQipbuZbF2qTwWt7axNqk8BAovBLZd1I+bVJYnMxSwJ2Fr6p78atoIGq+qgQjW5lVhH05aqJs/lnJttX1fOpfWUGA8nBfNFg5WRnj53BBc1OSiptCVt3P3BSjuopz7QITBOLltmNDwBAwBAwBQ8AQMAQyIVD2wkAmgOx6YSHADFDRmY1qonRuTQd1P3JrU+jK1MSCnHbaaTXxaHuGIWAIGAKGgCFgCBgCeUXAhIG8wmuZVzcCfvao6s43XX5YALAM8DMyBAwBQ8AQMAQMAUOglBAo2gDiUmoEq4shYAgYAoaAIWAIGAKGgCGwNBCo5RbpKooAYsBp3HiTpYGRPdMQMAQMAUPAEDAEDAFDwBAoSQTKfjahkmzVGqqUzTRQQ0BX4jHWJpUAq4aSWpvUENCVeIy1SSXAqqGk1iY1BHQlHmNtUgmwaihpvtrE3IRqqAHtMYaAIWAIGAKGgCFgCBgChkChIWDCQKG1iJXHEDAEDAFDwBAwBAwBQ8AQqCEETBioIaDtMckReOGFF6Rt27Yybty45AnsrCFgCBgChoAhkAGBCy64QDp27KhrwWRIapcNAUMghkC1CgOs7mpkCFQGgfbt20udOnXkxhtvrMxtltYQMAQMAUPAEAgRQBh47733ZODAgeE52zEEDIHsEKiWdQbGf/OtDBz0qvz88y+yVdMt5bhjjpKVVqqXXQksVUEj8OGHH8qCBQtk//33z1jO/v37y/Tp05OmY9Xfo446qsK1ZZddVs+zoNfcuXNllVVWqZAm3YkJEybIiy++KMcdd5yst956CUl//fVX6dOnj2qLNtpoI90/+OCD3bu5kjz66KNy1llnJaTPdDB69Gh59913UyY755xzZIUVVkh5fWlcWLhwofTq1Ut23313admyZUIR7rvvPmndurU0a9Ys4bwdGAJxBGbMmKFMFt/nfvvtJ/Xr1w+TzJo1S7p16ya9e/fWc999953wPbdo0UJ23nnnMB078bSc4zvt27evXHzxxRwqoVgaNGiQ/Pjjj9KqVSvZaaeddOE/f52+4qWXXtJy0DexSjgEM8gz4kQ5GjZsGD9d0MeZMPCFB/cDDjggoX6p8OGef/75R+jXx48fLyhj4ivZ//DDDzJ48GDFfdttt/WP0S19oJuBUPuMdu3aZdUm2Twz4SH/f5BpPPnjjz/0/WrevLne4ceYsWPHSocOHZJlmfW5yZMny8cffyzDhw+XtddeW3bZZRfZc889w/sfeuihhGeHF2zHEChWBBYtXhLk+rviqmuD1994O5j757zglh53BS+/8nrOecbLxBSoRjWLgOv4g5VXXjk4++yzkz54ypSpCec7deoUuEFbf45pCFZbbbXwuHPnzglp/YEbvAM3kAdbb7114Bj1wA2A/lJW29mzZwfOshDcdNNNFdL36NFDyz9v3jy9dtVVVwVucAt23XXX4OSTT66QPtMJNziF9WnUqBFT8gY77rhjeI6yLG2Kt8nMmTO1nE5QCubMmZNQPNrHDWoJ5+yg+hGIt0n1PyG/OTpNa1C7du3AMeWBW/07aNy4cTBt2rTwof369QucUKnHxx57bLD88ssHe+21V+AEhqBp06bBkiVLkqblJN8m+a655pphGvoAJ3AEtWrVCpwQG9StWzdwK36H14cMGRI4ofv/2jsPcKmK8/+PiU9i7xqiJiJYUGOv0dj7X8Vugg01YkcFEQE14t8YH9SoYANRwShI0dg7ys9GEZCiqNgFgl1BQEH4ZX7v541zcvbc3bPt7r27e9/3eXZPmzNz5jvnzLx1Rr+7jTfeWO/97LPP9PoBBxzghXmLfiussIK+/0OGDInuZ6fa2yQfBqEyshq61m/06NHhlE/Dhz7gV7/6lf7EPVP73h49ekT3du/eXfvT/fff39OHyyKP0bWTTz7ZiyLFH3jggX7FFVf0ooCJrpVTZsgk2Sb5xhPeRVF0hNv9+eef70Xp41dddVU/aNCg6HyxO7wrvHu8u7LQpL6fHMfHjGTZxZZRK+mTbVIrz13Pz1mpNnFJprvY4x8WLfZnd+7qp735lgoAg+8d6u+46x4TBmr8bbzuuut0EKYTLFQYiFf5kEMOyRhI4tfi+yNGjPD8Zs6c6W+88cYMJiOeLm2/Q4cOfosttmiQRDTevlOnThnnJ0yY4F966aWihY6MTORg8ODBOgiLli15qVmPkx1FEAYQXE466aSMZzNhIAOOih0k26RiBVUgY95vmKLOnTtr7mJpUiG/T58+UWknnniiv+aaa7xYBPzPfvYzLxpVvYZwDNOOEB0opOX41Vdf9W3bttXvKC4MIHzwvrKFyJd+SCwFeizabBUWOOD5ROPvr7rqKr2W/EM4QAEQF0hIU+1tkg8DsX5o/wpO/EbHhIE0fGgnGOYlS5YoVGI5VcZetOz+22+/1X2xmuq1sWPHat5iQfBTp07VNnhZBDGItqBcsczqcall6s0//aW1SbbxhLYPyqOFCxfq+PH66697FEz9+/ePZ13w/qhRo1RAuvbaazPueeCBB7S+YhnW8/GyMxLW2UFam9RZVWumOpVqk7JjBqSTdocdcrAbeNdgd1v/gW7y5Klun733lH7CqJYRkM7Q8cMloLEIc/95553nhAl1xx57rJs/f7663Vx88cVONO2uX79+apqlvGnTpjlM1FdeeaVbd911nTAL7sILL8waHCZaQzd9+nQ3ZcqU6FExZ7/xxhtOtEt6jmPRdjlhDhzmbYKWMYdD1JN0wYVItI3ukUce0Wv18texY0d37733qutFtjoFfNZYYw0nml231157RfiwjxuIWG+caN2cCFjabiKAqQk97t6RLW87V9sI3H333U6saloJ3M6EEdIfJ2QEdc8++6z2E1wTIcHttttumhZXorXXXttNnDhRj+NpOYH7GmlvuOEGvR7+hPF0a665pjv00EP1FN/jVlttFeVDOYEYf3AREqE3nIq2uALiDiOWi8iNKLpY5Tv5MMBV5+OPP87qtpiGz0YbbeRuvvlmJ5YeRWCTTTZxwkiryxDts2jRoggZYrkg3LhwscIFC3dDSCw6uuVdgEotU28u8U+sT2748OF6N66suPTQt+OOCn7UC6L/YhzBHVIsRZpGlE96Lfl35513qksaY1Kcjj76aNe7d28nVio9HS87X9+Zq2zw7tmzp2LbqlUrHd823XTTrG5u8WexfUOgIggUawnIlv6W2+/wf73mOj985D991+69/CtjxptlQL70WqbFixfr44svaqNZBoSp95jt+/bt66UT99K5qkn36aef9tKRq5sQbkloXcaNG6eaGFwIuC4Mgx4/99xzDWBFO4TbTrdu3aJrEkzmsQwEwnKA6VsYE//444973GaC2bdr166ad5cuXVSr2b59ey/MiD5HuD+5rTXLAG52aNdk0PHBnSluGUjDR3xxVcMrPtr+tttuU6zAB/cQ8fXWY5kNKgmRHf+EQKU0OU0NMN+rMJPq0vfpp59q8ZMmTVKXk6ChjT8T37gMWh5tK5RMKwyknudbilsG+D4llsiHMkhHv4DLBoTGmvS46AnzpN8+2us4oSnm/RZmK3462q/2NsmHQeifqScYxy0DheATgBCljKdfDm2BRhyXMPpK3G1wE1q6dGlIrm2CKxguRBJzFZ0vp8yQSVqbZLMMYOEIbkK4LrVr104tFqL08PRZwaLNPu+PMPqe8YM+8IwzzgjFZmyxMl1yySUZ57IdxMvO13fmKhvrOzhixcDyEFxPJe4uW5HNci6tTZrlgazQilk1f1auhPH1N9+4iZMmu7PP7OQOb3+oO/igA9yzz40qN1u7v5kRQDtcCZIO2olvpwb1CtOtgYZoWcQH1aFpxloQNDqUL4KDk47eCaOuWumPPvqowWOhHTz11FMdAWfClDgxgbuhQ4dGVgEZzJx0vE78SJ0MGBp0KO4JTvyMo7w4RkOJphLrhTDM+ixRgjrYIegNzR/4x6kQfGg3gg0JusZ6IEyCBm2L65FabcaMGRPP0vbrEAG+LWGC3KxZs5wwn1pDEdT1++QbjBMBqCJs67uGthZKpg1a1vh97PO9YxnAUoe1kC19QtA+E1iMZrp169Zu/fXXdwSSzpgxIyMbNMak4b2tRcqHQVr/XAg+tCX9AGkJ3qYt6HuHDRum2GMJwBqLBj0+KQRpsPZwjQBbAryhUstsjLaR+BUdR+iL6N8JFsc6wOQRgejTsSAz1vA+ZRtH6AepK/ULNHLkSMfYIHEy+hMhIlzSbSF9Z66ywfrwww93Ek/nsDxg+TYyBJoLgbKFgVVWXllNb3xEIrS5OXM+VTeQ5qqQlVvdCNCpBmIAwkyKILD99ttHU8LxHgVisA8kWhRH55uNYDxEk+gwn8OIMGgxOECYxJlhhNkgREujM00wCxEDYiBmoghEOVCuskK6WtvibgVzJQFyGW5QheADcxCI2Zjis4zQjsFdIKSxbf0hgLsDs2nBwOA2BgUGP15b3HNguGA2EeYDZUsbrsW3vI+PPfaYMmUwdMwkhPAJU4ZQILFFTnzfHYyaWB2UkUq6dSD48pzx/iNeRrXvp2GQ9uyF4CNWBXXTFIuM9pVBWHviiSfU1RJ3m4EDB+raLwgDAwYMiIrEZeumm25St0yYcNq6nDKjjMvYwV0KkkkkdAYrZrHC3Qf3MZQ6UPw9yDWOgDkzE+H2E4hx6YorrnC9xUVIAq8zBCPSFNJ35ir7vffe03EvlJWc7S2ct60h0BQIlC0M8MEdd8yR7r77h7uLuvdUYeAIsRAYGQLZEKDzDIQ2n4Fp/PjxqsWj04XiTLoEJIbkqVuYeeIBsA7gGw/zEKY/ZJo4fObRvjC4MU0iHW8p5aQ+RA1cREDCInPWWWdFlo9C8OE7j1NSExy/Zvv1g8DcuXPVIiSB91Gl8DPnO4LR4tvluwuEdQ3tqczk5WSmm3Bapw1Opo0uJnbmzJnjYJRgTsW1SNcgIe4AYYB3FetWnHGCYYMxpS+BuF/cDN1pp52WyLl2DtMwSKtFPnzwrReXG4clj3gKYqcCvfPOOxqfhfUHwvqAnz3af6aKZUGvoCBBAUA64q7KKTOUXc4WJh0aLMKNBEHrj3gxBMowBhQ6jhDXRl2ZHhdCeSWzKOkPS1SSqHupYwtlxb8rhDAjQ6C5EPgvZ1bGE+yy806O3+Iff3S/rJB7SRmPZ7dWKQIM3gzwmHaxLAXmIQzqxT42ZmACgWXmEGUkwv0cQ5tttpkOdjAZWA/E5zgkaVFbNH24ZAVtvuHTopq/qMoS7I/mV6af1EBcLGpojQnGl1m5NLAXlxEIZl/idtQit+222yqzyXnW/yDAnyDgkJbzuQiFAQIF5SK84uKHAMCkAzwPmlYWKcRqQL/BPPswbCHglbIghIRapTQM0uqE5j4NH5k6VK07BIWzFgECAYRGHMsp1h8CuxGk6COxtMIcy4xSylwz2QLrqaB0IUgX981yyqQ9yyXGECY3IHidAGneMaxCbHn2YgiFFO5PBB2zj8sRAdSsaSF+/U5mrsvIrpy+k7UQJF5N318CiLHaGhkCzYVAYWrXAp/OBIECgWoBydAcJ7XHyWMGHjR+mG0ZbFg8CA2OTA8XIRS/J1ueUULZQeONNgt3GDrzQAxWuCzgP8yiYHTA+JSiPQqarng54b5821LuyZdnpa7Hn5WBhxlFAuXDJ34v99BGyXMhL9vWHwJo+2G00QQzmwyWAdxDcPuJzzaGaw4ufvig8/2FH0J+Mm0Spfj7xCJPCAD0D7gQwoQRA4QvNxaqBx98UDW3MHsIGGipe/XqFWWJhptrQWMcXaihnTQM4tUIuIVtPnwkWFVvh9kP7cNWAoDdHnvsoS5YCAzgjiUACyJuRAh0CF20Aww8q/0ywxRa8XLKjNclbZ/6hTqGdEHbz5YYEZQbCKEIB1gEeB+h5H0ch3tDXmFL3STIWONWeG/Jj/gN3OPoM4k7g8L9xfad8bIRYLGO44JELBZjIBSEWj2wP0OgiRBYhtmBmqissooZN3aMrpZaViZ2c6MiMGvWbPeb3/zXp7/UzDHxM9iwGnElCe0iwYa1zCTkw6ecNmkJ+OTDrxLXy2mTSjxPqXniFsQ3GrS5fLcI8iHGJi3fYtKGfHDjI9YHxjgbESOE8E+wcbFUK22SD4O0epeKDwoSLC70kwhaSSKAnGvZgphLLZMyGqNNeEd5LmLDGoOYspbpSImTSqNS+k6EZnBE2ICIc5D1PNR9c1mxjlUDNUabVEM96ukZKtUm1fHG1VNLWV2KRiAeYFX0zUXcwMCWbXArIou6Tmr41HXzll25JNNdzHdbTNrwoGhfcwkCpEGBUO+UD4O0+peKD4xofMKAZBnxyRaS10otM5lPqcfJd7TUfMJ9ae9fSMO2lL4Ti4pMl6uz12FRw2qDe1y1CALx+tl+/SNgwkD9t7HV0BAwBAwBQ8AQMASqCAFiYHAbIq4BFyfckoh7MzIEmgMBEwaaA3Ur0xAwBAwBQ8AQMARaLAJYALAM8DMyBJobgUYNIG7uylj5hoAhYAgYAoaAIWAIGAKGgCFQOALLyNRhNRFATJXatGlbeM0spSFgCBgChoAhYAgYAoaAIWAIpCJgswmlwmMX0xCoVFR7Wpl2LR0Ba5N0fJrjqrVJc6CeXqa1STo+zXHV2qQ5UE8v09okHZ/muFqpNjE3oeZoTSvTEDAEDAFDwBAwBAwBQ8AQqAIETBiogkawRzAEDAFDwBAwBAwBQ8AQMASaAwETBpoDdSuzIghMmjTJPfroo27u3LnulltucT/88ENFyrFMDQFDwBAwBAwBQ8AQqBcEGlUYYK5cI0OgORBgxcxddtnFXXvttW7ttdd2t912m1t++eWb41GsTEPAEDAEDAFDwBAwBGoGgZ9fdvnlvct92tcnT3F9b7ndPfLo447lyLfa8neOlRMbk2bPnuVat27dmFlaXikIINjJTFPuySefdOutt55bZZVVGqT+7rvv3Kqr/vc8mvi+fftq2ydXHEVTD3PO8uuVoJ///OeuQ4cOunjLPvvs4+67776i38HJkye7IUOGuDFjxmT9bbvttu7uu+/W5e6z1eOOO+7Q1SNbtWqVtYovvPCCYwn6hx56yM2ePdv99re/dSuuuGLWtKWeLKdNZs2a5d58801H22FhYaXRX/ziF6U+it33EwLJNqllYMaOHeteffVV97vf/S6qxldffeUuuugid+ihh+q5d9991w0dOlT3k/1AMi2JvvzyS119ddddd9V7+Pv3v//tHnnkEffEE0/oN7XuuuvqAk0hAZgOGzbMzZw5U2aZa+P4/iG+sQkTJrjp06dn/FZaaSW32mqrhdtdLbRJPgxCZW6//XZdqTlZv2z4cE++vv3999/XfvCXv/ylS/Zl9JHku3DhQrfhhhsW1CaFlEmaZJvwnDfccINbY4013FprrUWSiG666SYdT8Lz/fjjj7po13vvvee22267KF0pO5988om+d3fddZd7/fXX3dKlS7WuIa98/XxIVw/bZJvUQ51qvQ4Va5NFi3/05fzmzV/g/3zmef6VMeP87Dmf+u69/uInTJpcVp7ZnocpUI2aBoFvvvnGC7Orv7333tvLsum+R48eDQqfOXNWxrkvvviCaWq9LEnvySNOMlB56UTjpxp9//zzz/fCYPtVV13VDxo0qOj877//fr/jjjvqTwY6rcsOO+wQnfv666+9MMheBt+seYuw6m+99das1y6++GLNb/PNN/f777+/X2GFFTSvt99+O2v6Uk+W2ibz5s1T3Lbccksvg68XAdDLIFjqY9h9MQSSbRK7VFO7n3/+uV9nnXX8nnvumfHcInhH544//ngvAqTfb7/9/Oqrr+5534VRi9LH03JywYIFfvfdd/fC7EVphAn2Bx10kJfVWf0f/vAHv9xyy3lZmTW6/vLLL3tRLOh3ufHGG+u9n332mV4/4IAD9Bl5Tn58Z/RJIuRH97NT7W2SD4NQGVm1Vus3evTocMqn4ZOvb+/evbsXIUD7KFEA+aOOOirK9+STT/YiVPkDDzzQixLDn3DCCdG1csoMmSTbRJRLWjcRLEOSaMs7Ee9rzzvvPL/BBht4nvmee+6J0hW7w3vCe8d7K4uB6bvJ8SmnnBJlldbPR4nqZCfZJnVSrZquRqXaxGVjvIs5N/3tGf6c87tGzP+IBx/2g/4xJDouJq+0tCYMNN37e8011yhTvWTJEi2UzpXOH4YxTsmXMggDDL4nnXRSPKmvtDAgmip/4403etHkeNEO+v79+2eUX+zB4MGDdSAS7VTGrWnCAGkZxJPEoAZTctVVV0WXJK5BMencuXN0rh2Lo6UAACD9SURBVDF2Sm0T2nbcuHH6CDNmzGjQ1o3xbC01j2Sb1CoOovnXbyIpDJx44omePkMsAl4swv6VV17RKiI8w7QjZAcKaTkWC4Nv27at5hkXBh5++GE9xxYiXxgysVbp8RFHHKHCAgd8czCB8W9LE/30h3CwzTbbZAgkXKr2NsmHgVhYlFGnr+U3OiYMpOGT1rd/++232s+LRlzREyuQ5o3CYurUqdoGL4sgBtEWlPvhhx/qcall6s0//SXbpFBhIPT9YrXwzz//vB8wYEA824L3R40apYovcTXNuOeBBx7QupI3lKufz7ipTg6SbVIn1arpalSqTcr25cFN5Pvvf3Bz582TvkF6B+/dv/41R/ftrzYR2GijjdzNN9+s5nlqsMkmm6hZWAaFgirUsWNHd++996qrSbYb8O+XwUNcjFZVd4MzzjhDXXxIu9tuu6kbTbjvyiuvdGeeeaYTxsJtttlm7qmnngqX3LPPPuu22morDRT+/vvv3Wuvveb23Xdf98c//tHJ4KXPTOK99trLkY9ovZ0w5ZoG94JSSQYNt8UWW6iLjzAbToQgzUq0oW748OENshWhyvFbtGhRdI26C5PkuL8pKF+bHHzwwW7OnP98t7S3CFaKe9euXR3tY9SyERDh2k2ZMsV16tQpAwj6e75D0eTrd9inTx/9hkkklgGN35k4caLeE0/LCdHsalpcQeLEt7vmmmtGbkei/dfvPOSDO2IgERKcWC6jbzCcZ4ubx4svvqgug6SpJcqHAS6cH3/8sRMGtUG10vBJ69tpn3gfhZsQhBuXCFzqgiWWGj0nFh3dCmOs21LL1JvL/BPlhbr14B7Ke4iLGq5OUK7xJFuRd955pxPLsBMrbsblo48+2vXu3duJNULPx/t53KbE0quuTLhUMtaEsolfO/30091hhx3mcFPjPcb1DQLrnj17Kq64Ol144YVu0003dbjRGRkCzYJAmja+0Gs33Xy779ylu7/uhn7+lNPP9v1uHWCWAfna64WOPfZYLz67Hk1NnJISarAMYMU55JBDvHRyHu0gFLcM7LTTTn777bf3zzzzjP/b3/7mxd/XS6et6TDtB80UJ84++2zNi31clo455hh2lXiuYMbGdN2uXTvVWIkgoi4455xzjqZDm7/yyit76ez9c889p88lDO5PuWTfpFkGyEuYfi0LjSYmaggXpbjpOp7zJZdcotol8W/2Z511lkfbJL5/8SSNsl9qm+TC/brrrvNHHnlkozxbS80k2Sa1hgOWItxD0Izi7ha3DMgMXupOmM0ixjcig5pH4wol04b+hG8tbhl4/PHHtU+Q+DO9j3R8c7htQGisSY8LnzBQHpe+pLsd2mL6HGG49J7kX7W3ST4MFi9erFWinmActwwUgk/AI9m3oxVfdtll1U0Id0v617i7IG2CKxjuOPTNgcopM+SRbBPanbrR79Nfx39YoEJfK4oZfV4RFj244aYa3Hpy9WuhzPgWCxP9dD6K9/NpZYsiRZ+/S5cuai1r3769FyFXLQv0q2CIBZuxILiliqIsX/FNej3ZJk1auBWWFYFKtUnZlgEkmE5/PsWdflpHt8/ee0ow14buV+uszWmjGkdABngnfviq4SfwNWhGCqkWQVZombg/TmJWVg3+FVdcoVpxtCO///3v40ly7p922mnuscce06lDmT6UINdTTz1Vg3FFsHDimuREIHA777yzWgfEvSnKSxh2J37HDq0OmpqPPvooulbsjjDz7rjjjtN8CJpEM5WPxLdXNahYAkQgcSLUqMVFXCry3dpo13O1Sa4CpCdS65AIbrmS2Pk6R4DgSXHtUQ0nmtckPf30004E8YxAUtJgwROGTL9/rHVQMm2u/oT8sAzwnfbr10+3wvRGUwXz3aOZFt9tDXYXF7cG3yAWOtKIQkDLrrW/fBikBfYXgk+2vn3+/PkaHAz2WAJE4NIAbSy5gUjDbG1co+/64IMP9FKpZYZ807YEB2P5jf9Cet5PYaydxIhp3481SlzPnMSQhCQFbcmHelK3QCNHjtS8CFDnl7SQFlI2z4LlCwsFYxAW7oDz4YcfrtZXLA9YBowMgeZEoFGEAWZyWGutNd1s+ZhEanF77PEfU2JzVszKLg8B0Tw50Ro50drpwB4G9EJzZfYPBnJm5wmmUe5ltgcIc2wgpgTNRTCkgeg0MV3TSTPYi+ZPzcKYyyGxMjixOugPky+uAXS+UHxWE9HI6AwReqGEP5iQQKJ5cmCVRuKLq7P0YE5m5g/MyG+99ZYOuAgoTUW52iRb+eDOYA+j1atXr2xJ7FwLQIBZW5hRhZmvgqsQ7mTs844EBj8OBe45MPIoAphdLFC2tOFafCuaaRX6YcwQ6OkrREOtjBlCAS5s4vuu/QAue/QLSdcOBF+Yrfh3Hy+j2vfTMEh79kLwydW3M3MTrmC4Ww4cOFD7KNwpxQc/KhJXF94JZmtiRjTaupwyo4xTds4991x1O8X1NPyCMAROuNYgqIr1yIkV06FwQtjJRvHxJH6dfLbeemuH208glCAorXqLixCzx8WFItIUUjYzsgVi3IEQIhgH40qWtDEw3G9bQ6CSCDSKMPDpp5+5v17dx705/W13cdcL3OqxKdwq+fCWd2UQQAMjbj46vSY+t2KmLakgNPViGnVo0tGGQHR6MOnjx4+P8mTwCYRgKebhcJjRATM1qbgKqCCAMIDGkg45TPOJ4ALjze+NN95QhgJNEdSYU90WmxdWCwlizPBrJv4BTROCDJqvpqJsbULZ2XCXWV50MMQv26hlIsB7ATM+YsQIZcz5rpg+GkshU9zxHcfjXtCC8l5ff/31OtVjQC1b2nAtuUXYgFmCOWUhwauvvtoRL4CWlWkfsTjGmSeYKhjTIJRzvwTDOyyJtUppGKTVKR8+aX37O++841AYIPhBMNzEWaH9pw/DGgojC2HVIR2KjXLK1MzK+KNs4qEQCBFcZMYrfTeCMJCtX8tVHP0d9WRqXAhrgMygpL+4Aijcn69s0uUaKyiLKXADxcfAcM62hkBTItAowsCvf93K3fj3Pu6iCzuLtvM/HUlTVsLKalwE0IQQmIamnUEcgYAfrjnFElolmN0QaEbgLFocmf1DtYoEWTGvfyAGowcffFAZZ5gBghPjxAAv/rH6PLgIQTAJzHtO8CKaLRgDtIKUkaszjudZ6X2Cc9EKYV3BSsKgyxZ8sRYELVelnyPkn2wTzoO7zGCiwYKsLZHEPdxr25aFgPg7O/EHj34IkzDffLPM6U8APy4jEIJBt27dVEhnTY7Qb8Bc0Z/E06ahiICPQIF2GsUA3zECAJZKNNNo+xEQZJpMFfqxtsG0hYBXtNZQXPOaVl41XkvDIO158+GT1rfTL9N3EtgN7v/85z+dxH9p0Dhth4sm/TXWQixDBDmjNCqnzLS6FHItKFJQrtCHMWbgohYEw3zjSbwMrAAw/QQB00cyluDSiauZ+PWr61o8fb6y42mT+1gwwJN3l3VnsKIbGQLNikChQcLNnY6gVKOmQYBgPXkpG/yEScx4gGQgSwggFiYgIx1zN5NfWGdA/PW9DDw63Sbz2ouPvwaJcRNlEPhHegKQmbKOKQ3jJB2/Bg/GzwkD4IUB0fuEufbCeHvRumsSAr7iawMIw6LX4/cn98XKoFPpMY1cnJJ5EXAWAiplIImC2uL3sM/0iKLN1OA86saUi6LN8kwx2phUapsUgntjPmdLyivZJrVcd953YZa0CsKw+8suuyyqjgjqDfoM3nUR2jX4M542ukl2+NbEJSh+Sr8jYeT0G6SPYLrgQCJ0eJnxSq+RP/2HaGnDZS+MVUZAcnQhtlMLbUKAbC4MQlVE06+Yx8fHNHzy9e1Mz8w0yEzlKlp1Ly46oShdu4WAWTCnj423ZzllhgKSbRICiONT04a09J+yyrweXnDBBRrgzjPxXkisio4hTI1dbL/G9KrcT19OPcGBPBk/xCqi5cX7+bSyCSBmHArE1M3kybSwIkh47iXAmTV9RHkVXQvpq2GbbJNqeKaW/gyVapNlYPLlBa16Gjd2jBOmq+qfsyU94KxZs2WV2vWLqjIaGzR9aP6CORo3A7SLYdVSrAi4IrDycdJFBfMvK19eeumlmkeycGIE0LTjP9rUhH8zfqe4BOUiNJy4AFB3tH+NTaW0SXiGNNxDGtsWj0A5bVJ8aU13B1pkLF7BFzqt5GLShnz41vEHJy4nG9FH8K0T8Fos1Uqb5MMgrd6l4oMrEP7xuF9mC/JmpXKugX2SSi2TfMppE/pVgoixEOOCE6dS+zWmjGYqaqYFTSPKxloS3FXT0oZruNmRnkBxiBg3WXNG3WmXrcC4EMotdltOmxRblqUvDIFKtUnjcyOF1cdStVAEMOVPmzZNA706dOigZn7cCeLrB+DnmS3wD9M0rix0vrL6ZVYES2EMsmZUwkkC3QhkTBMGGFzxRa1GyoV7NT6rPVPzI5DtG831VMWkDXng4pdLECCNTCEZktbtNh8GaRUvFR+YUWYTykXxoNhkmlLLTOZT7DH96i233KLxAklhoNR+Le3diz8fZWcTmuJpkvvEzRH/xgxDoulWtysUZNUkCCSf2Y7rGwETBuq7fauydjD1zAiEEICGHH/isJhN2gOjJSPmAL9QWRE5LWmzXEPjn01b1iwPY4UaAoaAIdCCECBovFYWlyP+Bas3ActYLph6uilnlmtBr4VVtUAEzE2oQKAsWUMEKmWualiSnSkUAWuTQpFqunTWJk2HdaElWZsUilTTpbM2aTqsCy3J2qRQpJouXaXapFFmE2o6GKwkQ8AQMAQMAUPAEDAEDAFDwBBoLASWYRaCxsqs0vm0adO20kVY/oaAIWAIGAKGgCFgCBgChkCLQcDchFpMUzd+RStlrmr8J205OVqbVF9bW5tYm1QfAtX3RPadWJtUHwLV90SV+k7MTaj62tqeyBAwBAwBQ8AQMAQMAUPAEGgSBEwYaBKYrRBDwBAwBAwBQ8AQMAQMAUOg+hAwYaD62qTmn4ip0lhDYKeddnLvvPNOzdfHKmAIGAKGgCFgCBgChkC9IlAxYWDp0v+tV8ysXnkQ+Mtf/uJeeOEF165dO3fEEUe47777Ls8ddtkQMAQMAUPAEDAEDAFDoDkQ+Plll1/eu5SC58+f715+dYwbMnS4+83667nVV19ds/nqq6/dDX1vccNHPujGjBkni0r9xq25xhqlFJFxz+zZs1zr1q0zztlB5RD48ccfdXGvUaNGuVVWWcWttdZaDQqDyV911VUanN9ss81UEFhWVrL861//6lgVmP1iaPLkyW7IkCHyDo3J+tt2223d3XffrYt8ZVsG/qWXXnIsQsPy9HFavHixu+mmm6I8x48fr9aL9dZbryoXMos/eyH7yTb54YcfXN++fR0rmSZXgWXFzuWXX94F/GbNmuXefPNNTffoo486Vhq1RdQKQT09TbJN0lNX39Xvv//ePfLII+6tt96KfvPmzdP3g6f96quv3EUXXeQOPfRQffh3333XDR06VPeT71wyLYm+/PJLXYF111131Xv4Y4FBymSBQfqOddddVxdpCgnAdNiwYW7mzJm6ojerzEIoISZMmOCmT5+e8VtppZXcaqutFm5XBUW2vitKUAU7+TAIj3j77bfrSs3J+mXDh3uw3Mosgu7JJ5909Hv073F6//33te9ltfhWrVrFLzn6ZfJduHCh23DDDQtqEzLIVyZpkt8J99xwww1uDeEfkuMPfTh9V3g++nvGg0022aRBfcgbKqYvXLJkievTp4+ODdtvv/1/MpD/XONKlKDOdpJtUmfVq8nqVKxNFi3+0Zfyu7jn5f7W/nf6M865wE9/e0aUxy23D/T9bh3gv5k7zw8b8aDvefmV0bVSygn3MAWqUdMgMHfuXC+drG/Tpo3fbbfdvDCE/oEHHmhQ+MyZsxqc44R04l5WFmbKWi9MQdY0+U7ef//9fscdd9SfDDqa1w477BCd+/rrr70wq14GwqxZdevWze+9994NrnEfz9W2bVvNa/PNN/crr7yyl4HF33PPPQ3S19qJZJt88cUXWt9f//rX/ptvvsmojjAP/o477tBzwtx5Wd3Zb7nlll4GXy9Mgl+6dGlGejsoDYFkm5SWS/PdJQy2vkPrrLOOD7/TTjsteqD77rvP77nnnnp8/PHHa3+x3377eVEQeb4vUSxkTcvJBQsW+N13390LsxelESbYH3TQQV5WaPWyMrlfbrnlvKzOGl1/+eWX9Xulf9h444313s8++0yvH3DAAdEz8qwrrLCCPrsoFqL72an2NsmHQaiMrFyr9Rs9enQ45dPwoQ8Q4V9/9I+yYq/v0aNHdG/37t29CAF+//339yIk+KOOOiq6dvLJJ3sRqvyBBx7oZQV4f8IJJ0TXyikzZJJsE2HetW7ZxhDeiVtvvTXc6um/RAnlO3fuHJ1L7hTaF3LfhRdeqGMYfeJdd90VZZVrXIkS1NlOsk3qrHo1WZ1KtYkLzHax2wULv1cm/4Kul2QIA916XObHjp+g1z7+ZJbv+Oez/PwFC8sWCEwYaLr39vLLL1dGW7QjWuhJJ53kRTvS4AFyvZTPPvusF22eP+6443Sgb3BjkScGDx6sgwJCRpzShAEGU35JCsLAww8/HF1i0GGgY4D74IMPovO1uJNskzAAIgDRjnFKCgNiSdHLM2bM0ME1ntb2S0cg2Sal59Q8d4p21ovGNWfhJ554or/mmmu8WAS8WKD8K6+8omn51hCyEewDhbQcv/rqqyqU827GhQG+Tc6Fb5R8EQzEWqXZiOuhCgsc0CdssMEG/qqrrtJryT+Eg2222SZDICFNtbdJPgzEwqKMOjjxiwsDafjQTihqQt+OAoR+D2b622+/1f3A/I4dO1bzfvvtt/3UqVO1DV4WQQyiLSj3ww8/1ONSy9Sbf/pLtkkxwgBZ0HcPHDgwnmXGfqF9oVjC/I033uhff/11jyDcv3//KJ9c40qUoM52km1SZ9WryepUqk1KjhnI5faxYMFCt/baa0s/4cR0+Z+taH/02P5qA4FTTjklMs/zxLQfJttCSQYTJxo9d/rppzsZPNRcH+69+uqrXadOncKhmvSJLcB9pxTCjWmLLbZQFx8Z+J10+JrN9ddf7zp27FhQlqJlcqJlUpcY0XIWdE+tJQKLe++91+H+k40OPvhgN2fOHL2EqV0GQ3fmmWe6rl27ujPOOCPbLXauhSAwZcoUt91227lPP/3UCYPocBsKJKOpE+HfiSZf3TBwrRBrol7GdZSxYOLEiXocT8sJvjnS4goSJ2E81bUwuB2J9t9ttdVWUT64ewQSIcGJdjv67sN5tvRDL774ouObJk0tUT4McPP5+OOP3fPPP9+gWmn4bLTRRu7mm2+O3Db51nH5EYbf0T6LFi2K8sNNCMKNSwQudcGiX4fCmB7GhVLL1MzK/MN1SSwZTizH7pxzznF77bWXw9UpF+XrC3GB+/zzz51YRdyf/vQnJ0KBwy0aKmZcyVW+nTcEqhGB4hy5C6gBHYr0KpqSjvqnnQLutCTVgoC4B+mjPP300+7aa69V33txEyro8cQM7USr5fBj3XfffdX/XDQrOgCRgZjz3ezZs6O8GFREE12UsBHdLDswInfeeaf6j4rrghMNoZaFUIAPfJzE7cVNmzZNT4kWSf1fGfDElcHhU4xQgV90PdKpp56qvt0w+Azo+OHGicFTNIPRKQbDf/3rXzqwErdh1HIRQBgQDbAKkggC4nLmHnroIbfzzjvrN0Q/v/XWW6v/OEx7oJEjR6pPP4ImBNMW0nIMs44gLtppDiPCR1tcFZUJxSccBpXyiUWAevfu7Q477DAnbkLKpMGQwgTGiecUlw4VZvmua43yYUD9jz766AzBLNQxDZ9jjjkmJNMtghjxGLQfbSGWA1UCEBfw2muvKUNMLAcxGTDZ9N/Ehzz++OPu7LPPdggXUKll6s15/kTb7xB+4kRMWyCxeGodnnvuOX0+lE0onQYNGhSSZGzz9YWXXXaZCr1gQ5/IMe8TypRs40pG5nZgCNQoAiVbBnLVd6WVVnSf/6Sd/UI0CtBKK66YK7mdr2IE0IagEcIKNGLEiIKelMBB0h977LEatCruN9qJon2qBJ111llO3JGUOUCTiGCRiwi8QdMNIaxw76WXXholF/9QhzBTryTxAcpYnX/++QVVEcGetowH0BV0oyWqKwTQHl9yySXKoKNBRtuP9RBCYSA+5BmBpJx/6qmnNA3vGkoBKJkW5jMbkR+TDsDw9uvXT7f0H0H7jHULJUJrmVCCAGU0ucnvfvjw4ZomKSRkK68az+XDIC2wvxB8xN3F0Tak/cc//qGCAP09QgDY0+8TtEuANkqBQKSh/bkm7mAOpQpUapkh37QtjD/MePwX0qPgue6665Txx8KMNUriwVQoCGmybXP1hShBsCQxLhx55JEOBRPChbi6lWy9zla+nTMEqg2BRhcGWksnMnnKVEc0/qRJk0WL1KrmTLTV1kjN9Tww9GhX6AjR3qHZy0fM6MDAjfZQAnO1o2awDrOLJO9XS1LyZBHHMASBJGAwtcNGG45bEYS5l5mE0HAG+uijj5wE0IbDutuiAYS5YpYmZmpJI9qFwZ6269WrV1pSu1bnCKDhRzuKqw0MF9Yl1g9BcA4MfhwCNP4w8jCbzGQVKFvacC2+RQB97LHHlOmk38ECgMsGTB59Cy5saLB5Lr5nNOQXX3xxPAsHs3f44Yc3mEErI1EVH6RhkPbYheCDSyZ9++DBg1VoC8IaMzdhBcIigDYeKynCwIABA6IicdliJh9ma8LCS1uXU2aUccrOueeeqwolNPPhF4QhcGKGqn322UfHGxh4rEgIO2mUqy+cNGmSjiES1B7dzj7WJ6wiRoZAvSLQ6MJA+8P+n3Qgs12Xbj3cqBf+x/3puEyzZL0CWU/1Yp2Av//971GV0AxCaX6YXEdY4McAwRRs/GC4MTPjKgQxxWXQ8HEc1zpxXCyRX2MQrjBoPfE7rWfCpN6+fXu1igQ/WOqLG0CyXRgEr7jiigZa33rGx+qWiQBuErwzTNcZCCGAKSl5Z/i+idUJhGsFMSYI2zLTTTit00Ym00YXEzvErrz33nsatwRzhssHcQcIA5988olat3bZZZfoLixXMKYh7oj7mVYYrW6tUhoGaXXKhw/a9UMOOUSnViaeQmYUirJDwINJlgBjPQfDjXIE7f8zzzyjFlg08RBWHdIxJpRTpmZWxh9lEwOAQIjggmafdyOfMECR2fpC3muIOIFAvHtMY5qcJjdct60hUA8IlB0z0OeaqzJw+JVoZ/9/b/GxkyCv5aXDiOIGMlLZQTUjwPzyXbp00eA+OkBMpmj599hjj9THxiqAReAUcSGIM+loEumw0Tgx2JCOQR6TLlqm5qA33nhD5x1Hq8UgCPNCMCMuR/VOaPrwow7Bf9SXdiHWg/rD+BGLIdND1jsUVr88CPCNwmijeceiBPNHjA6aZeb0J0YAlxEIZh8/fZgs1gGB2YToE9Akx9PqhRx/aHsRKPg2yQs3EOIGKJO59OmTEBCwGqBMwOUPd8QQ8EpZUC27t6VhkAM2PY3mPg0fmTpUg47pg3GbDG1EzADa9SuvvFIDuxGkcPXCVx9BgLgqrDXEkKGpx1pMkDPjRDllxtdGSKtXrmshdoC1bejDsG7w3IUqdZJ9IfWkPgi1xEMQu4J1nHiJsJZFrmex84ZATSNQ7JSizZVeOiXxXDBqCgREw+YlOEznm5eX28vg4pkuNEnxKa6YS5z56ZmHOUkyqOuc1cwVLpobnaaUfFm/QAYdos09aXKRmLN1WjthXjOSMEVefJ0B8WuO5jvPNR+0aDW1PMrkJx28zrnN/NQ8W61TvE2oS5hOTwb9jKox7zr1D+sMyAJEnqlGOccaE0wVKDEYGffYQWkIJNuktFya7y6x9ulUnsKg6tSholnWNSuEYffiPhQ9WPiWw7cVthKw6ZNpo5tkh+9b/NDjp3QOeWHu9Ltn7QumeAwkQodOdSqKJn1fJZDZi4Y4XPbiCpcxVWl0IbZTC23CPPq5MAhVEU2/YhAfH9PwYU2V0C7xLd8/xJSarM0AtvSNwviHorwwxV6UCHo/fXe87cspMxSQbBOxVGpZ8alpQ1qmrL3tttv08IILLtD1D3gmsWJ7UUZpXxamTw33FNoX8r6HerIOg8Rv6LSr5JNrXAll1Ns22Sb1Vr9arE+l2mQZmHvpFKqexo0d42Rhm6p/znp6QLQumF2xFGSjWbNmy7X1s13Kew7/S7RCuYII82aQJwH+7sz8gK9xS6Jy2gRLAdNHYio3i17jvTXltEnjPUX5OeEeRNwAVkIIiwGr1yZXsM1WUjFpw/24euAPTixQNuJdxZWFgNdiqVbaJB8GafUuFR9cgbC4sDJ5tv6ZWdq4BvZJKrVM8imnTbAcEd8UVlNPPlcpx1icWGWZaXNbKpXTJi0Vs0rXu1JtUrabUKUrbvk3HwJ09rkEgXKfKiwjX24+ue4nbgF3l5YmDOTCo5DzmMFxMTAyBLIhkJyOtph3pZi0oWxcDXMJAqTB/ajeKR8GafUvFZ9lxU2L2YRyUdqYUGqZucoq9DxCSzbBpdD7s6XDhRUFZEsWBrLhYufqEwETBuqzXVt8rVjQqJAgshYPlAFgCBgChoAh0AABAodrbbG6BpWwE4ZAgQiYMFAgUJasthAQv9faemB7WkPAEDAEDIGqQSC4w1XNA9mDGAIVRKBx5mWs4ANa1oaAIWAIGAKGgCFgCBgChoAhUBkElmEWgspk3fi5tmnTtvEztRwNAUPAEDAEDAFDwBAwBAyBFoqAzSbUQhu+Mapdqaj2xni2lpqHtUn1tby1ibVJ9SFQfU9k34m1SfUhUH1PVKnvxNyEqq+t7YkMAUPAEDAEDAFDwBAwBAyBJkHAhIEmgdkKMQQMAUPAEDAEDAFDwBAwBKoPARMGqq9N7IkMAUPAEDAEDAFDwBAwBAyBJkHAhIEmgdkKMQQMAUPAEDAEDAFDwBAwBKoPgZLXGZg/f74bP2GiGzt2vDuhwx9dmzYbau2WLFnipkyd5sbI+XbtNnEH7r9f9dXansgQMAQMAUPAEDAEDAFDwBAwBFzJwsC1f7/JtZYly7/86msXn5v0vqHD3Ny589x3Iiz8+3//bRAbAoaAIWAIGAKGgCFgCBgChkCVIlCyMHDFZT3dsssu6y7peXlG1U46oYOev2vQPzLO24EhYAgYAoaAIWAIGAKGgCFgCFQXAiXHDCAIZKNc57OltXOGgCFgCBgChoAhYAgYAoaAIdB8CPwfFSDDZ019qhgAAAAASUVORK5CYII=;" vertex="1" parent="1">
          <mxGeometry x="33" y="72.2" width="777" height="227.8" as="geometry" />
        </mxCell>
        <mxCell id="6ZSq0b5IOj_RQ6HTlrTR-24" value="&lt;b&gt;&lt;font style=&quot;font-size: 20px&quot;&gt;QUẢN LÍ NHÂN VIÊN&lt;/font&gt;&lt;/b&gt;" style="shape=partialRectangle;whiteSpace=wrap;html=1;left=0;right=0;fillColor=#dae8fc;strokeColor=#6c8ebf;" vertex="1" parent="1">
          <mxGeometry x="30" y="40" width="790" height="40" as="geometry" />
        </mxCell>
        <mxCell id="6ZSq0b5IOj_RQ6HTlrTR-25" value="" style="strokeWidth=1;html=1;shape=mxgraph.flowchart.merge_or_storage;whiteSpace=wrap;labelBackgroundColor=#000000;labelBorderColor=#000000;gradientColor=#ffffff;fillColor=#333333;" vertex="1" parent="1">
          <mxGeometry x="157" y="86" width="12" height="7" as="geometry" />
        </mxCell>
        <mxCell id="6ZSq0b5IOj_RQ6HTlrTR-26" value="&lt;font size=&quot;4&quot;&gt;&lt;span style=&quot;font-weight: normal ; font-size: 13px&quot;&gt;BGD&lt;/span&gt;&lt;/font&gt;" style="text;strokeColor=none;fillColor=none;html=1;fontSize=24;fontStyle=1;verticalAlign=middle;align=center;" vertex="1" parent="1">
          <mxGeometry x="70" y="130" width="150" height="40" as="geometry" />
        </mxCell>
        <mxCell id="6ZSq0b5IOj_RQ6HTlrTR-27" value="&lt;font size=&quot;4&quot;&gt;&lt;span style=&quot;font-weight: normal ; font-size: 13px&quot;&gt;BGD&lt;/span&gt;&lt;/font&gt;" style="text;strokeColor=none;fillColor=none;html=1;fontSize=24;fontStyle=1;verticalAlign=middle;align=center;" vertex="1" parent="1">
          <mxGeometry x="70" y="150" width="150" height="40" as="geometry" />
        </mxCell>
        <mxCell id="6ZSq0b5IOj_RQ6HTlrTR-28" value="&lt;font size=&quot;4&quot;&gt;&lt;span style=&quot;font-weight: normal ; font-size: 13px&quot;&gt;BGD&lt;/span&gt;&lt;/font&gt;" style="text;strokeColor=none;fillColor=none;html=1;fontSize=24;fontStyle=1;verticalAlign=middle;align=center;" vertex="1" parent="1">
          <mxGeometry x="70" y="170" width="150" height="40" as="geometry" />
        </mxCell>
        <mxCell id="6ZSq0b5IOj_RQ6HTlrTR-29" value="&lt;font size=&quot;4&quot;&gt;&lt;span style=&quot;font-weight: normal ; font-size: 13px&quot;&gt;HC&lt;/span&gt;&lt;/font&gt;" style="text;strokeColor=none;fillColor=none;html=1;fontSize=24;fontStyle=1;verticalAlign=middle;align=center;" vertex="1" parent="1">
          <mxGeometry x="75" y="220" width="140" height="30" as="geometry" />
        </mxCell>
        <mxCell id="6ZSq0b5IOj_RQ6HTlrTR-30" value="&lt;font size=&quot;4&quot;&gt;&lt;span style=&quot;font-weight: normal ; font-size: 13px&quot;&gt;HC&lt;/span&gt;&lt;/font&gt;" style="text;strokeColor=none;fillColor=none;html=1;fontSize=24;fontStyle=1;verticalAlign=middle;align=center;" vertex="1" parent="1">
          <mxGeometry x="75" y="240" width="140" height="30" as="geometry" />
        </mxCell>
        <mxCell id="6ZSq0b5IOj_RQ6HTlrTR-31" value="&lt;font size=&quot;4&quot;&gt;&lt;span style=&quot;font-weight: normal ; font-size: 13px&quot;&gt;HC&lt;/span&gt;&lt;/font&gt;" style="text;strokeColor=none;fillColor=none;html=1;fontSize=24;fontStyle=1;verticalAlign=middle;align=center;" vertex="1" parent="1">
          <mxGeometry x="75" y="260" width="140" height="30" as="geometry" />
        </mxCell>
        <mxCell id="6ZSq0b5IOj_RQ6HTlrTR-33" value="&lt;b&gt;&lt;font style=&quot;font-size: 16px&quot;&gt;Xem&lt;/font&gt;&lt;/b&gt;" style="rounded=1;whiteSpace=wrap;html=1;strokeWidth=2;fillColor=#dae8fc;strokeColor=#6c8ebf;" vertex="1" parent="1">
          <mxGeometry x="400" y="310" width="90" height="30" as="geometry" />
        </mxCell>
        <mxCell id="6ZSq0b5IOj_RQ6HTlrTR-34" value="" style="shape=partialRectangle;whiteSpace=wrap;html=1;left=0;right=0;fillColor=none;strokeWidth=2;" vertex="1" parent="1">
          <mxGeometry x="280" y="300" width="510" height="50" as="geometry" />
        </mxCell>
        <mxCell id="6ZSq0b5IOj_RQ6HTlrTR-40" value="&lt;b&gt;&lt;font style=&quot;font-size: 16px&quot;&gt;Thêm&lt;/font&gt;&lt;/b&gt;&lt;span style=&quot;color: rgba(0 , 0 , 0 , 0) ; font-family: monospace ; font-size: 0px&quot;&gt;%3CmxGraphModel%3E%3Croot%3E%3CmxCell%20id%3D%220%22%2F%3E%3CmxCell%20id%3D%221%22%20parent%3D%220%22%2F%3E%3CmxCell%20id%3D%222%22%20value%3D%22%26lt%3Bb%26gt%3B%26lt%3Bfont%20style%3D%26quot%3Bfont-size%3A%2016px%26quot%3B%26gt%3BXem%26lt%3B%2Ffont%26gt%3B%26lt%3B%2Fb%26gt%3B%22%20style%3D%22rounded%3D1%3BwhiteSpace%3Dwrap%3Bhtml%3D1%3BstrokeWidth%3D2%3BfillColor%3D%23dae8fc%3BstrokeColor%3D%236c8ebf%3B%22%20vertex%3D%221%22%20parent%3D%221%22%3E%3CmxGeometry%20x%3D%22390%22%20y%3D%22320%22%20width%3D%2290%22%20height%3D%2240%22%20as%3D%22geometry%22%2F%3E%3C%2FmxCell%3E%3C%2Froot%3E%3C%2FmxGraphModel%3E&lt;/span&gt;" style="rounded=1;whiteSpace=wrap;html=1;strokeWidth=2;fillColor=#dae8fc;strokeColor=#6c8ebf;" vertex="1" parent="1">
          <mxGeometry x="500" y="310" width="90" height="30" as="geometry" />
        </mxCell>
        <mxCell id="6ZSq0b5IOj_RQ6HTlrTR-41" value="&lt;font size=&quot;3&quot;&gt;&lt;b&gt;Xoá&lt;/b&gt;&lt;/font&gt;" style="rounded=1;whiteSpace=wrap;html=1;strokeWidth=2;fillColor=#dae8fc;strokeColor=#6c8ebf;" vertex="1" parent="1">
          <mxGeometry x="600" y="310" width="90" height="30" as="geometry" />
        </mxCell>
        <mxCell id="6ZSq0b5IOj_RQ6HTlrTR-43" value="&lt;font size=&quot;3&quot;&gt;&lt;b&gt;Sửa&lt;/b&gt;&lt;/font&gt;" style="rounded=1;whiteSpace=wrap;html=1;strokeWidth=2;fillColor=#dae8fc;strokeColor=#6c8ebf;" vertex="1" parent="1">
          <mxGeometry x="700" y="310" width="90" height="30" as="geometry" />
        </mxCell>
        <mxCell id="6ZSq0b5IOj_RQ6HTlrTR-44" value="&lt;font size=&quot;3&quot;&gt;&lt;b&gt;Xuất File&lt;/b&gt;&lt;/font&gt;" style="rounded=1;whiteSpace=wrap;html=1;strokeWidth=2;fillColor=#dae8fc;strokeColor=#6c8ebf;" vertex="1" parent="1">
          <mxGeometry x="300" y="310" width="90" height="30" as="geometry" />
        </mxCell>
        <mxCell id="6ZSq0b5IOj_RQ6HTlrTR-46" value="&lt;font size=&quot;3&quot;&gt;&lt;b&gt;Thoát&lt;/b&gt;&lt;/font&gt;" style="rounded=1;whiteSpace=wrap;html=1;strokeWidth=2;fillColor=#f8cecc;strokeColor=#b85450;" vertex="1" parent="1">
          <mxGeometry x="40" y="310" width="50" height="30" as="geometry" />
        </mxCell>
      </root>
    </mxGraphModel>
  </diagram>
</mxfile>
